<?xml version="1.0" encoding="UTF-8"?>
<!DOCTYPE svg PUBLIC "-//W3C//DTD SVG 1.1//EN" "http://www.w3.org/Graphics/SVG/1.1/DTD/svg11.dtd">
<!-- Creator: CorelDRAW X6 -->
<svg xmlns="http://www.w3.org/2000/svg" xml:space="preserve" width="210mm" height="297mm" version="1.1" style="shape-rendering:geometricPrecision; text-rendering:geometricPrecision; image-rendering:optimizeQuality; fill-rule:evenodd; clip-rule:evenodd"
viewBox="0 0 21000 29700"
 xmlns:xlink="http://www.w3.org/1999/xlink">
 <defs>
  <style type="text/css">
   <![CDATA[
    .fil0 {fill:white}
   ]]>
  </style>
 </defs>
 <g id="Слой_x0020_1">
  <metadata id="CorelCorpID_0Corel-Layer"/>
  <path class="fil0" d="M8317 9863l11 -3 10 1c1,0 1,0 2,0l43 -19 10 -6 14 -5 20 -11 37 -26 13 -6 10 -6c0,0 1,0 1,-1l7 -7 10 -3c0,0 1,0 1,-1l9 -7 20 -10 11 -1 12 -3 10 -1 9 2 21 9 7 5 12 15 17 25 0 9 3 14 -5 31 -13 25 -31 44 -43 31 -38 19 -24 5 -22 1 -13 -2 -16 -5 -16 -7 -14 -4c-1,0 -2,0 -3,0l-17 6c0,0 -1,0 -1,1l-15 11c-1,0 -1,1 -1,2l-5 12c0,1 -1,2 0,3l3 13c0,1 1,2 2,3l20 15 11 5 24 8 46 6c0,0 0,0 1,0 0,0 0,0 1,0l11 -1 13 0 23 -6 21 -10 12 -3 11 -5 21 -12 19 -16 16 -10 22 -20 9 -9 7 -9 15 -19 10 -19 8 -9c0,0 1,-1 1,-2l7 -23 6 -9c0,0 0,-1 1,-1l6 -24 0 -24 -3 -26c0,-1 0,-1 0,-2l-5 -9 -3 -10 -6 -12 -4 -10c0,0 0,-1 -1,-1l-10 -13 -13 -15 -9 -7 -8 -10c0,-1 -1,-1 -2,-1l-33 -14 -23 -4c0,0 -1,0 -1,0l-14 1 -10 3 -12 -1c-1,0 -1,0 -2,0l-34 13 -11 4c0,0 -1,0 -1,1l-9 6 -44 23 -59 39 -24 12 -9 6 -11 2 -12 4 -22 0 -12 -1 -9 -4 -20 -20 -10 -16 -8 -20 -1 -21 4 -11 2 -11 9 -22 6 -10 7 -9 42 -39 12 -6 7 -5 23 -11 22 -7 11 -1 24 0 9 1 10 4 10 8c0,0 1,1 2,1l13 3c1,0 2,0 3,0l13 -5c0,0 1,0 1,-1l18 -15c0,0 1,-1 1,-1l6 -12c1,-1 1,-2 0,-3l-5 -13c0,-1 -1,-1 -1,-2l-9 -9c0,0 -1,-1 -1,-1l-15 -7 -14 -8c0,0 -1,0 -1,0l-26 -7 -34 -1 -24 4 -9 3 -24 5c0,0 -1,0 -1,0l-43 22 -19 14 -12 10 -10 6c0,0 -1,0 -1,1l-29 32 -6 8 -9 10 -6 10 -6 15 -9 18 -8 22c0,1 0,1 0,2l1 12 -2 22 1 12 6 24 9 24 6 10 10 13 14 15 8 7 20 13 13 6 13 3 22 1 13 2c1,0 1,0 2,0z"/>
  <path class="fil0" d="M8893 9146l-10 4c0,0 -1,0 -1,1l-8 7 -12 6 -11 7 -11 6 -100 63 -12 5c0,0 -1,0 -1,1l-18 14 -20 12 -13 6c-1,0 -2,1 -2,2l-6 11c-1,1 -1,2 0,3l4 19c0,1 0,1 1,2l30 44 4 11 7 11 12 16 13 22 11 14 16 32 11 13 125 202 7 8 6 10 4 10c0,0 0,1 1,1l8 9 11 9c1,1 2,1 3,1 0,0 0,0 0,0l15 -1c1,0 2,0 2,-1l9 -7 50 -31 10 -5 40 -27 12 -7 8 -7 10 -5c0,0 1,0 1,-1l8 -7 22 -12 10 -7 21 -11 8 -7 21 -13c0,0 1,-1 1,-1l8 -10c1,-1 1,-2 1,-3l0 -15c0,-1 0,-1 -1,-2l-11 -20c-1,-1 -1,-2 -2,-2l-12 -5c-1,0 -1,0 -2,0l-13 2c0,0 -1,0 -1,0l-10 5c0,0 -1,0 -1,1l-8 6 -11 7 -11 5c0,0 -1,0 -1,1l-7 6 -13 7 -19 13 -32 17 -20 12 -10 8 -9 6 -12 6 -17 13 -10 1 -9 -7 -12 -17 -4 -10c0,0 0,-1 -1,-1l-11 -14 -7 -15 -7 -9 -6 -10 -8 -10 -10 -21 -10 -14 -4 -15 9 -11 37 -20 28 -19 9 -2c1,0 1,0 2,-1l19 -14 11 -6 8 -6 10 -4c0,0 1,0 1,-1l39 -28c0,0 1,-1 1,-1l7 -10c1,-1 1,-2 1,-3l0 -13c0,-1 0,-2 -1,-3l-6 -8 -5 -9c0,-1 -1,-1 -1,-1l-10 -7c-1,-1 -2,-1 -3,-1l-12 1c-1,0 -1,0 -2,1l-21 14 -15 7 -14 10 -12 5 -48 33 -9 3c0,0 -1,0 -1,1l-10 8 -38 22 -11 1 -10 -7 -6 -9 -12 -23 -7 -8 -8 -16 -11 -13 -25 -43 -1 -9 7 -9 8 -8 32 -16 28 -21 52 -32 13 -6 18 -14 20 -12c0,0 1,-1 1,-1l8 -10c1,-1 1,-2 1,-3l0 -13c0,-1 0,-2 -1,-3l-6 -8 -6 -9c0,-1 -1,-1 -2,-2l-12 -6c-1,0 -2,-1 -2,0l-14 1c-1,0 -2,0 -3,1l-9 8z"/>
  <path class="fil0" d="M9403 9146l2 -11c0,0 0,-1 0,-1l-2 -10 -1 -51 1 -11 -1 -22 2 -24 2 -5 5 1 27 23 7 8 8 7 10 6 9 12 46 40 10 6 8 8 27 22 9 12c0,0 1,1 1,1l7 5 2 6 -4 7 -11 3c0,0 -1,0 -1,1l-19 13 -127 57 -11 1 -3 -7 -2 -23 1 -12 -1 -61zm398 117l-20 -19 -25 -19 -10 -11 -98 -82 -9 -10 -162 -135 -17 -17 -10 -7 -7 -7 -20 -15 -16 -16 -18 -14c0,0 -1,0 -1,-1l-16 -6c-1,0 -2,0 -3,0l-17 8c-1,0 -2,1 -2,2l-7 15c0,1 0,1 0,2l-2 95 2 11 -2 16 1 29 -2 13 0 12 3 12 -2 116 -2 13 1 12 -1 13 1 9 -3 25 -1 71 1 12 -2 10 0 14 2 12 -3 21c0,0 0,1 0,1l2 12 0 15c0,1 1,2 2,3l8 6c1,1 2,1 3,1 0,0 1,0 1,0l12 -4 12 -6 12 -5c1,0 1,-1 2,-1l10 -13c0,0 1,-1 1,-1l5 -14c0,0 0,-1 0,-1l3 -59 -1 -12 2 -11c0,-1 0,-1 0,-2l-2 -12 1 -9 5 -12 16 -14 16 -7 20 -11 24 -9 9 -6 32 -14 11 -3c1,0 1,0 2,-1l8 -6 43 -20 11 -2c1,0 1,0 2,-1l8 -7 11 -4 12 -2 13 5 83 70c0,0 1,1 1,1l14 5c1,0 1,0 2,0l15 -3 26 -10 11 -8c1,-1 2,-2 2,-4l-1 -12c0,-1 -1,-2 -1,-3z"/>
  <path class="fil0" d="M9859 8843l4 10 44 146 6 11 4 21 4 13 4 9 2 12 4 13 9 22 30 100c0,1 0,1 1,2l9 10c1,1 2,1 3,2l14 1c0,0 0,0 0,0 0,0 1,0 1,0l24 -7c1,0 1,-1 2,-1l10 -10c1,-1 1,-1 1,-2l2 -12c0,-1 0,-1 0,-2l-10 -37 -4 -9 -7 -27 -5 -10 -3 -10 -2 -13 -22 -67 1 -11 7 -8 66 -21 12 -1c0,0 1,0 1,0l40 -16 18 -3c0,0 1,0 1,0l10 -5 10 -3 13 -1c1,0 1,0 2,-1l12 -7 9 -7c1,-1 1,-1 1,-2l4 -14c0,-1 0,-2 0,-3l-8 -20c0,-1 -1,-1 -1,-2l-9 -8c-1,-1 -2,-1 -3,-1l-13 -1c-1,0 -1,0 -2,0l-12 3 -17 6 -11 1c-1,0 -1,0 -1,0l-15 7 -14 3 -21 9 -11 4 -13 2c-1,0 -1,0 -2,1l-8 5 -25 7 -10 4 -21 6 -10 -2 -10 -9 -2 -10c0,0 0,-1 0,-1l-4 -9 -2 -12 -17 -56 -8 -17 -2 -10 -9 -29 2 -10 6 -9 9 -2 13 -1c0,0 1,0 1,0l22 -8 13 -4 9 -5 11 -1c1,0 1,0 2,-1l9 -6 12 -3 12 -1 54 -20 12 -1c0,0 1,0 1,0l16 -6 16 -11c1,-1 2,-2 2,-3l3 -13c0,-1 0,-2 0,-2l-7 -21c0,-1 -1,-1 -1,-2l-8 -9c-1,-1 -2,-1 -3,-1l-14 -1c-1,0 -1,0 -2,0l-21 7 -14 3 -22 9 -78 24 -11 2c0,0 -1,0 -1,0l-9 5 -13 2 -11 4 -11 3 -11 4 -24 6 -33 14 -11 7c-1,1 -2,2 -2,3l-2 15c0,1 0,2 0,2l8 22 2 11c0,0 0,1 0,1l4 9 6 25 9 22 3 13z"/>
  <path class="fil0" d="M10856 8784l2 11 -8 47 -9 21 -3 13 -5 11 -12 18 -9 8 -14 18 -20 11c0,0 -1,0 -1,1l-10 10 -10 5 -43 15 -59 10 -12 0 -13 -5 -23 -2 -21 -7 -41 -23 -22 -18 -19 -23 -6 -13 -6 -8 -19 -45 -10 -46 -1 -25 4 -35 8 -34 17 -33 5 -8 5 -10 24 -27 18 -15 54 -27 12 -4 36 -2c0,0 1,0 1,0l10 -4 12 2 23 0 12 4 12 1 23 7 9 6 19 10 37 31 14 20 8 8 4 11 8 11 9 21 2 13 3 8 8 37 1 10 -2 13c0,0 0,1 0,1zm71 -37l-4 -18 -1 -17 -4 -15 -4 -9 -4 -14 -9 -20 -4 -13c0,0 0,-1 -1,-1l-6 -9 -5 -11 -9 -12 -7 -6 -8 -11 -8 -8 -9 -11 -18 -15 -41 -25c0,0 -1,0 -1,-1l-10 -2 -10 -6c0,0 -1,0 -1,0l-23 -7 -11 -2 -13 -4 -37 -4 -11 1 -12 -2c-1,0 -1,0 -2,0l-11 3 -11 0 -36 6c0,0 -1,0 -1,0l-10 5 -12 2 -24 8 -9 5 -12 5 -33 18 -9 8 -10 6 -10 8 -17 19 -6 11 -8 10 -12 20 -8 8c-1,1 -1,1 -1,2l-6 21 -6 11c0,0 0,1 0,1l-13 58 -1 14 2 12 0 24 7 49 4 11 3 14 4 10 3 12 9 22 8 11 6 13 20 29 25 26 25 18 15 9c0,0 1,0 1,1l10 3 23 13 10 3 12 3 11 6c1,0 1,0 2,0l10 0 26 5 11 -1 25 2c0,0 0,0 0,0 0,0 1,0 1,0l12 -4 10 -2 20 0 17 -4 12 -5 11 -2 25 -8 11 -4 40 -24 38 -31c0,0 1,-1 1,-1l7 -11 16 -15c0,0 1,-1 1,-2l4 -11 7 -10 19 -45 5 -13 2 -12 3 -10 4 -49 -3 -24 0 -13z"/>
  <path class="fil0" d="M11594 8750l-15 45 -12 19 -5 12 -7 11 -15 16 -10 6 -17 16 -22 9 -11 8 -11 4 -44 9 -59 1 -12 -2 -12 -6 -22 -6 -20 -10 -37 -29 -19 -21 -15 -25 -4 -13 -5 -9 -12 -47 -3 -47 2 -25 9 -34 13 -33 21 -30 6 -7 7 -9 28 -23 20 -12 57 -19 13 -2 35 3c0,0 1,0 1,0l10 -2 11 3 23 4 11 6 11 3 21 10 8 7 17 13 32 36 11 22 7 10 3 11 6 12 6 22 0 13 2 8 2 38 0 10 -4 13c0,0 0,1 0,1l0 11zm53 69l4 -12 5 -10 11 -48 1 -24 2 -13 -1 -19 1 -17 -1 -15 -3 -10 -2 -14 -6 -21 -2 -13c0,0 0,-1 0,-1l-4 -10 -4 -12 -7 -13 -6 -7 -7 -12 -7 -9 -7 -13 -16 -18 -36 -31c0,0 -1,-1 -1,-1l-10 -4 -9 -7c0,0 -1,0 -1,-1l-22 -11 -10 -4 -12 -6 -36 -10 -11 0 -11 -4c-1,0 -1,0 -2,0l-11 2 -11 -2 -36 1c0,0 -1,0 -1,0l-11 4 -12 0 -25 5 -10 4 -12 3 -35 13 -10 7 -11 5 -11 7 -20 17 -7 10 -9 9 -15 18 -9 7c-1,0 -1,1 -1,2l-9 20 -7 10c0,0 0,1 -1,1l-21 55 -3 14 0 13 -3 24 0 50 2 11 1 14 2 10 1 13 6 23 6 12 4 13 16 31 21 30 22 22 14 12c0,0 1,1 1,1l9 4 21 16 9 4 11 4 11 7c1,0 1,1 2,1l10 2 25 8 11 1 24 6c1,0 1,0 2,0l12 -2 10 0 19 2c0,0 0,0 1,0 0,0 0,0 0,0l17 -1 12 -3 11 0 26 -4 12 -3 43 -18 42 -26c0,0 1,-1 1,-1l8 -10 18 -13c1,0 1,-1 1,-1l6 -10 8 -9 26 -42 7 -13z"/>
  <path class="fil0" d="M12091 8930l-17 -4 -41 -2 -13 -3 -40 -3 -15 -8 -4 -11 2 -31 3 -15 0 -11 5 -29 3 -42 4 -18 9 -94 6 -32 2 -22 2 -11 2 -38 5 -22 5 -9 10 -5 9 3c0,0 1,0 1,0l62 6 12 0 35 7 11 0 10 6 44 17 29 24 15 19 8 7 11 19 14 35 5 22 2 24 -2 11 0 11 -3 36 -3 13 -2 11 -5 10 -3 12 -11 20 -5 12 -21 26 -10 7 -10 10 -16 12 -12 6 -10 8 -34 8 -35 5 -12 -1zm114 47l22 -11 30 -22 20 -18 6 -8 17 -17c0,0 1,-1 1,-1l29 -51 3 -11 6 -12 12 -50 2 -33 3 -12 0 -15 -8 -60 -16 -44 -6 -12 -6 -8 -6 -13 -7 -9 -6 -10c0,0 0,-1 -1,-1l-8 -8 -8 -11c0,0 -1,-1 -1,-1l-9 -6 -28 -25c0,0 -1,-1 -1,-1l-10 -4 -10 -8c0,0 -1,-1 -1,-1l-11 -4 -11 -3 -11 -6 -13 -5 -21 -4 -11 -4 -20 -3 -17 -1 -27 -3 -19 -4c0,0 -1,0 -1,0l-10 1 -18 -3 -20 0 -18 -4 -24 -2 -10 -3c-1,0 -2,0 -3,0l-13 7c-1,0 -1,1 -2,2l-7 12c0,0 0,1 0,1l-2 11 0 11 -17 152 -4 14 -10 105 -3 15 -10 103 -3 17 -5 54c0,1 0,1 0,2l4 12c0,1 1,2 2,3l11 6c1,0 1,0 2,0l0 0 11 0 10 3 11 1 23 4 11 0 13 1 10 0 10 3 35 3 28 5 68 0c0,0 0,0 0,0 0,0 1,0 1,0l10 -3 25 -3c1,0 1,0 2,-1l10 -6 22 -6z"/>
  <path class="fil0" d="M13160 9229c0,0 1,0 1,0l22 -5 47 -17 31 -18 19 -15 33 -37c1,-1 1,-1 1,-2l3 -11c0,-2 0,-3 -1,-4l-9 -9c-1,-1 -1,-1 -2,-1l-23 -7c0,0 -1,0 -1,0l-15 0c-1,0 -1,0 -2,0l-13 5c-1,0 -1,1 -1,1l-18 18 -10 6 -8 8 -9 3 -21 11 -35 6 -10 1 -13 -2 -10 1 -17 -2 -63 -18 -44 -29 -18 -22 -7 -11c0,0 -1,-1 -1,-1l-8 -7 -3 -10c0,0 0,-1 -1,-1l-6 -9 -17 -57 0 -11 -2 -12 8 -59 16 -43 11 -23 6 -8 8 -9 6 -10 23 -24 10 -8 12 -6 9 -8 20 -10 11 -3 11 -2 13 -4 11 -1 11 -2 13 1 11 -1 12 3 12 0 11 3 14 5 18 9c0,0 1,0 1,0l11 2 27 16 11 8 25 24 18 32 21 57c0,1 1,2 2,2l13 9c0,0 1,0 1,1l23 8c1,0 1,0 2,0l11 -1c2,0 3,-1 4,-2l5 -10c0,-1 0,-1 0,-2l0 -13c0,-1 0,-1 0,-2l-4 -9 -4 -24 -3 -12 -8 -23 -11 -21 -7 -9 -6 -10 -7 -8 -7 -10c0,0 -1,-1 -1,-1l-8 -6 -26 -26c0,0 -1,-1 -1,-1l-9 -4 -9 -7c0,0 -1,-1 -2,-1l-11 -3 -11 -7 -21 -11 -45 -16 -23 -4 -37 -2 -25 2 -11 -1c-1,0 -1,0 -1,0l-21 6 -14 1 -12 4 -9 6 -22 8 -33 20 -38 32 -28 38 -6 12 -6 9 -12 23 -15 46 -4 24 -4 13 -3 36 1 11 1 25 3 11 1 11 4 15 7 20 6 11 4 12 12 22 5 11 14 19c0,0 1,1 1,1l9 7 7 9c0,0 1,1 1,1l10 7 17 16 32 22 10 4 10 6 18 6 12 5 30 7 12 1 13 2 11 0 12 3 37 1c0,0 0,0 0,0z"/>
  <path class="fil0" d="M13806 9139l2 12 -3 14 -2 62 1 11 -1 11 0 34 -4 14c0,0 0,1 0,1l1 9 -4 6 -8 1 -9 -6c0,0 -1,-1 -1,-1l-22 -7 -124 -63 -8 -8 3 -6 17 -17 10 -7 46 -39 9 -5c0,0 1,-1 1,-1l7 -8 39 -32 9 -6 16 -15 20 -14 5 -2 2 5 -1 36 -2 11 0 11zm-150 178l31 16 9 7c0,0 1,1 2,1l9 2 43 21 8 7c1,1 1,1 2,1l11 2 10 6 9 8 4 13 -2 109c0,1 0,1 0,2l5 14c0,1 1,1 1,2l12 10 24 14 13 4c0,0 1,0 1,0 1,0 2,0 3,-1l8 -8c1,-1 1,-2 1,-3l2 -28 -1 -31 2 -15 1 -128 2 -14 2 -211 3 -24 -1 -12 1 -10 -1 -25 2 -23 -1 -23c0,0 0,-1 0,-1l-6 -16c0,-1 -1,-2 -2,-2l-17 -8c-1,0 -2,-1 -3,0l-16 4c-1,0 -1,0 -2,1l-75 59 -7 8 -14 9 -22 19 -11 7 -9 8 -8 10 -91 72 -11 7 -9 8 -11 8 -6 7 -21 14 -55 44 -8 8 -9 5 -11 9 -9 9 -18 11c0,0 -1,1 -1,1l-8 9 -12 10c-1,1 -2,2 -2,3l0 10c0,1 1,3 2,4l11 7 13 5 12 7c1,0 1,1 2,1 0,0 0,0 0,0l17 0c0,0 1,0 1,0l14 -5c0,0 1,0 1,-1l48 -35 8 -9 10 -5c0,0 1,-1 1,-1l8 -9 7 -5 13 -3 21 4 15 8 21 9 22 13 11 3z"/>
  <path class="fil0" d="M14254 9558l9 8c0,0 1,1 1,1l37 21 14 12c0,0 1,0 1,1l10 5 8 5 9 9c1,0 1,1 2,1l14 5 11 2c1,0 2,0 3,0l13 -6c1,0 2,-1 2,-2l11 -19c0,-1 1,-1 1,-2l1 -12c0,-1 0,-2 -1,-3l-7 -11c0,0 -1,-1 -1,-1l-10 -7 -15 -10 -7 -8c0,0 -1,-1 -1,-1l-15 -7 -11 -9 -20 -11 -10 -6 -9 -9c0,0 -1,-1 -1,-1l-9 -3 -21 -15 -9 -5 -18 -12 -5 -10 1 -14 6 -7c0,0 0,-1 1,-1l4 -9 8 -10 32 -49 9 -17 7 -8 17 -26 9 -4 11 -1 8 6 9 9c0,0 1,1 1,1l20 12 11 7 10 4 8 8c0,1 1,1 2,1l10 3 10 7 9 9 49 29 8 9c0,0 1,1 1,1l15 9 18 6c1,0 2,0 3,0l12 -6c1,0 1,-1 2,-2l12 -19c0,-1 1,-1 1,-2l2 -12c0,-1 0,-2 -1,-3l-8 -11c0,0 -1,-1 -1,-1l-19 -12 -11 -9 -21 -11 -68 -46 -8 -7c0,0 -1,-1 -1,-1l-10 -4 -9 -9 -10 -6 -9 -7 -10 -6 -19 -15 -31 -17 -13 -4c-1,0 -2,0 -4,0l-13 7c-1,0 -1,1 -2,2l-12 21 -7 8c0,0 0,1 -1,1l-4 9 -15 21 -12 21 -8 11 -5 9 -86 126 -5 11 -14 17 -8 12 -4 9 -8 9 -8 11 -11 21 -59 86c0,1 -1,1 -1,2l-3 13c0,1 0,2 1,3l8 11c0,0 1,1 1,1l21 15c1,0 1,1 2,1l14 1c0,0 0,0 0,0 1,0 1,0 2,-1l11 -6c1,0 1,-1 1,-1l23 -31 4 -9 17 -23 5 -10 6 -9 9 -10 39 -60 9 -6 11 0 58 38z"/>
  <path class="fil0" d="M14799 9952l11 4c1,0 2,0 3,0l12 -4c1,0 2,-1 2,-2l5 -8 7 -8c0,0 1,-1 1,-2l3 -12c0,-1 0,-2 0,-3l-5 -11c0,-1 -1,-1 -1,-2l-19 -15 -11 -12 -13 -10 -9 -9 -47 -36 -6 -8c0,0 -1,-1 -1,-1l-11 -7 -33 -30 -4 -10 4 -11 6 -8 18 -18 6 -9 13 -13 9 -14 34 -37 8 -4 11 3 10 5 25 26 28 20 46 40 9 11 19 13 17 15c0,0 1,1 1,1l12 4c1,0 2,0 3,0l13 -4c1,0 2,-1 2,-2l6 -8 7 -8c0,-1 1,-1 1,-2l2 -13c0,-1 0,-2 0,-2l-5 -13c0,-1 -1,-2 -2,-2l-10 -6 -7 -8c0,0 -1,-1 -1,-1l-9 -6 -9 -9 -10 -8 -9 -9 -91 -76 -9 -10c0,0 -1,-1 -1,-1l-19 -13 -18 -15 -9 -11c-1,-1 -2,-1 -3,-1l-12 -2c-1,0 -2,0 -3,1l-17 10c-1,0 -1,1 -1,1l-33 42 -10 8 -8 10 -12 16 -17 18 -10 15 -25 25 -10 15 -155 180 -6 9 -8 9 -8 6c0,0 -1,1 -1,1l-7 10 -5 14c0,1 0,2 0,3l6 14c0,1 1,1 2,2l9 6 45 38 8 8 38 30 10 9 9 6 8 8c0,0 0,1 1,1l9 6 18 17 10 7 17 17 9 6 19 16c0,0 1,1 1,1l12 4c0,0 1,0 2,0 0,0 1,0 1,0l14 -5c1,0 1,-1 2,-1l15 -17c1,-1 1,-2 1,-3l1 -13c0,-1 0,-1 0,-2l-6 -12c0,0 0,-1 -1,-1l-7 -8c0,0 -1,-1 -1,-1l-8 -5 -10 -8 -8 -9c0,0 -1,-1 -1,-1l-8 -5 -10 -10 -18 -14 -26 -25 -18 -15 -11 -7 -8 -7 -9 -9 -18 -12 -4 -9 4 -10 12 -17 8 -7c0,0 1,-1 1,-1l10 -15 12 -12 6 -10 8 -9 7 -10 17 -16 10 -13 14 -8 13 5 30 29 26 21 5 8c0,0 1,1 1,1l20 14 9 9 8 6 7 8c0,0 0,1 1,1l39 29c0,0 1,1 1,1z"/>
  <path class="fil0" d="M8507 15588l8 -8 85 -87 6 -8 8 -9 9 -7 10 -10 6 -9 17 -15 7 -9 8 -4 12 3 23 21 12 15 48 41 6 9c0,1 1,1 2,2l12 5c1,0 2,0 4,0l12 -6c1,0 1,-1 2,-1l8 -9 8 -7c1,-1 1,-1 1,-2l3 -13c0,-1 0,-2 0,-3l-6 -12c0,0 -1,-1 -1,-1l-69 -64 -20 -22 -13 -12 -6 -8c0,0 -1,-1 -1,-1l-9 -6 -27 -26 -7 -9 -94 -92c-1,0 -1,-1 -2,-1l-13 -4c-1,0 -2,0 -3,0l-14 4c-1,0 -1,1 -2,1l-15 15c0,0 -1,1 -1,2l-4 13c0,1 0,2 0,3l5 13c0,1 1,2 2,2l8 6 8 10 42 39 8 10 8 7 7 7 7 9 5 9 -3 8 -42 44 -7 10 -9 7 -16 17 -19 17 -5 7 -150 155 -6 9 -11 9 -21 24 -10 10c0,0 -1,1 -1,1l-5 12c0,1 0,2 0,3l5 13c0,1 1,1 1,2l10 8 7 8c0,0 1,1 1,1l12 7c1,0 1,1 2,1 1,0 1,0 2,-1l13 -7c0,0 1,-1 1,-1l8 -8 14 -12 27 -31 9 -7 37 -39 7 -9 9 -7 22 -22 6 -8z"/>
  <path class="fil0" d="M8960 16001l-8 -8c0,0 -1,-1 -1,-1l-21 -11 -111 -84 -6 -9 4 -6 19 -13 11 -5 52 -31 10 -4c0,0 1,0 1,-1l8 -6 44 -25 10 -4 19 -12 22 -11 5 -1 2 5 -7 35 -4 10 -2 10 0 12 -6 13 -13 60 -1 11 -3 11 -6 34 -6 13c0,0 0,1 0,1l-1 9 -4 5 -8 0zm4 241l12 6c1,0 1,0 2,0 1,0 2,0 3,-1l10 -7c1,-1 1,-2 2,-3l7 -27 5 -31 5 -15 23 -125 5 -13 39 -207 7 -24 1 -12 3 -10 4 -24 6 -22 3 -23c0,0 0,-1 0,-1l-3 -17c0,-1 -1,-2 -2,-3l-15 -11c-1,-1 -2,-1 -3,-1l-16 1c-1,0 -1,0 -2,1l-84 45 -8 7 -15 6 -25 15 -12 5 -10 6 -9 8 -102 55 -12 5 -10 7 -12 6 -7 6 -23 10 -62 34 -9 7 -10 3 -12 6 -10 8 -20 8c0,0 -1,0 -1,1l-9 8 -13 8c-1,1 -2,2 -2,3l-2 10c0,1 0,3 1,4l9 9 11 7 10 9c1,0 1,1 2,1l16 3c0,0 1,0 1,0l15 -2c0,0 1,0 1,0l53 -26 9 -7 10 -4c1,0 1,0 1,-1l9 -8 8 -4 13 -1 20 7 14 11 19 12 20 16 10 5 28 21 8 8c0,0 1,1 1,1l9 4 38 28 7 9c0,1 1,1 2,1l10 4 9 7 7 10 2 14 -21 107c0,1 0,1 0,2l3 15c0,1 0,1 1,2l10 12 21 17z"/>
  <path class="fil0" d="M9568 16438l8 -7c0,0 1,-1 1,-1l8 -14 9 -18 3 -11 6 -12c0,-1 1,-1 1,-2l0 -36 -5 -23c0,0 0,-1 0,-1l-6 -12 -7 -8 -3 -11c0,-1 -1,-1 -1,-2l-25 -27 -8 -9c0,0 -1,-1 -1,-1l-9 -5 -38 -32 -59 -40 -20 -18 -9 -6 -6 -10 -9 -9 -9 -21 -4 -11 0 -9 11 -27 10 -15 15 -15 19 -9 12 0 10 -2 24 0 12 1 11 3 53 24 10 8 8 5 19 17 14 17 5 9 9 22 3 8 0 11 -3 13c0,1 0,1 0,2l2 14c0,1 1,2 1,2l10 10c0,0 1,1 1,1l20 11c1,0 1,0 2,1l13 1c1,0 2,0 3,-1l10 -9c1,0 1,-1 1,-2l5 -12c0,-1 0,-1 0,-1l0 -16 2 -17c0,0 0,-1 0,-1l-4 -26 -12 -32 -13 -20 -6 -7 -14 -20c0,0 -1,-1 -1,-1l-37 -31 -20 -12 -13 -7 -10 -7c0,0 -1,0 -1,-1l-41 -14 -10 -2 -13 -4 -12 -2 -16 0 -20 -2 -23 1c-1,0 -1,0 -2,0l-11 6 -21 6 -11 6 -20 14 -19 17 -7 9 -9 15 -8 19 -3 10 -5 23 -1 15 2 13 7 20 3 13c0,1 0,1 1,2l7 9 4 10c0,1 1,1 1,2l34 33 9 7 10 10 18 15 38 24 11 10 9 6c0,0 1,0 1,1l9 4 6 8c0,0 1,1 1,1l10 6 17 15 5 10 7 10 4 9 2 10 0 23 -2 8 -9 17 -16 25 -8 4 -12 8 -30 7 -28 -2 -53 -11 -45 -27 -32 -28 -13 -20 -10 -19 -3 -13 -2 -17 0 -17 -2 -14c0,-1 0,-2 -1,-2l-12 -14c0,0 -1,-1 -1,-1l-16 -9c-1,0 -1,-1 -2,-1l-13 0c-1,0 -2,0 -3,1l-11 8c-1,1 -1,2 -2,3l-6 24 -1 12 2 25 12 45c0,0 0,1 0,1l6 9 6 12 15 19 18 16 7 10 9 8 19 14 22 12 15 11 27 13 12 4 11 3 23 7 21 2 12 4c0,0 1,0 1,0 0,0 0,0 0,0l24 -3 11 2c0,0 1,0 1,0l24 -4 22 -9 22 -12c0,0 1,-1 1,-1l6 -8 8 -7 8 -10z"/>
  <path class="fil0" d="M10235 16270l-10 -9c0,0 -1,-1 -1,-1l-89 -31 -27 -12 -17 -5 -9 -5c0,0 -1,0 -1,0l-10 -2 -35 -13 -10 -6 -123 -46c-1,0 -1,0 -2,0l-13 1c-1,0 -2,0 -2,1l-11 9c-1,0 -1,1 -1,2l-7 20c0,1 0,1 0,2l1 13c0,1 1,2 1,3l10 10c1,1 1,1 2,1l10 2 11 6 54 19 11 6 10 3 9 3 10 5 8 6 1 9 -21 57 -2 12 -5 10 -7 22 -11 23 -2 9 -75 202 -2 11 -6 13 -10 31 -6 13c0,1 0,1 0,2l0 13c0,1 0,2 1,3l10 10c1,1 1,1 2,1l12 4 9 4c0,0 1,0 1,0l14 1c0,0 0,0 0,0 1,0 3,-1 3,-2l9 -12c0,0 1,-1 1,-1l4 -11 9 -17 12 -40 6 -10 18 -51 3 -11 5 -10 11 -29 2 -10 5 -10 43 -114 2 -10 4 -11 5 -10 5 -13 2 -11 10 -20 3 -11 6 -7 12 -2 30 10 17 9 60 19 9 6c1,0 2,1 3,1l13 0c1,0 2,-1 3,-1l9 -10c0,-1 1,-1 1,-2l3 -12 5 -10c0,-1 0,-2 0,-2l-2 -13c0,-1 -1,-2 -2,-3z"/>
  <path class="fil0" d="M10548 16890l24 6c0,0 1,0 1,0 0,0 0,0 1,0l13 -2c1,0 2,-1 3,-1l10 -11c1,-1 1,-1 1,-2l6 -22c0,-1 0,-2 0,-3l-6 -12c0,-1 -1,-1 -1,-2l-10 -8c0,0 -1,0 -1,-1l-10 -4c0,0 -1,0 -1,0l-10 -1 -12 -3 -11 -4c0,0 -1,0 -1,0l-10 -1 -14 -4 -22 -4 -34 -11 -23 -5 -13 -2 -10 -2 -12 -4 -22 -3 -8 -7 -1 -11 3 -20 4 -10c0,0 0,-1 0,-1l2 -18 5 -16 1 -12 3 -11 1 -12 8 -22 3 -17 8 -13 14 -2 40 12 33 6 8 5c0,0 1,0 2,1l24 3 12 4 10 2 10 4c0,0 1,0 1,0l48 8c0,0 1,0 1,0l12 -2c1,0 2,-1 3,-1l9 -9c1,-1 1,-2 1,-3l1 -10 2 -10c0,-1 0,-1 0,-2l-2 -12c0,-1 -1,-2 -2,-2l-9 -7c-1,0 -1,-1 -2,-1l-24 -5 -15 -5 -17 -3 -12 -4 -58 -11 -9 -4c0,0 -1,0 -1,0l-13 -2 -43 -12 -8 -7 -2 -12 2 -10 8 -24 1 -11 6 -17 2 -17 13 -48 6 -7 11 -2 11 0 34 12 34 5 59 15 13 6 23 3 22 5c1,0 1,0 2,0l13 -2c1,0 2,-1 2,-1l10 -9c1,-1 1,-2 1,-3l2 -10 3 -11c0,-1 0,-2 0,-2l-4 -12c0,-1 -1,-1 -1,-2l-11 -9c-1,-1 -2,-1 -3,-1l-12 -1 -10 -4c0,0 -1,0 -1,0l-10 -1 -13 -4 -13 -2 -12 -4 -116 -27 -12 -5c0,0 -1,0 -1,0l-22 -3 -22 -5 -13 -5c-1,0 -2,0 -3,0l-11 3c-1,0 -2,1 -2,2l-11 16c0,0 -1,1 -1,2l-10 53 -5 11 -3 13 -3 20 -6 24 -3 18 -11 34 -2 17 -56 231 -1 11 -3 11 -5 10c0,0 0,1 0,1l-1 12 2 14c0,1 1,2 2,3l11 10c1,1 1,1 2,1l11 1 57 14 10 3 48 10 13 4 10 1 12 4 10 1 24 7 12 2 23 7 11 1z"/>
  <path class="fil0" d="M11539 16486l-6 -12c0,-1 -1,-2 -2,-2l-12 -5c-1,0 -1,0 -2,0l-94 -2 -29 -3 -18 0 -10 -2c0,0 -1,0 -1,0l-10 2 -37 -2 -12 -2 -131 -6c-1,0 -1,0 -2,0l-12 5c-1,0 -1,1 -2,2l-8 12c0,1 -1,1 -1,2l-1 21c0,1 0,1 0,2l5 12c0,1 1,2 2,2l12 6c1,0 2,1 2,0l10 -1 13 2 57 1 13 2 11 0 10 0 11 2 9 3 4 8 -3 61 2 12 -2 11 0 23 -3 25 1 9 -9 215 1 11 -2 14 0 32 -1 14c0,1 0,1 0,2l4 12c0,1 1,2 2,3l12 6c1,0 2,1 2,1l13 0 10 1c0,0 0,0 0,0 0,0 1,0 1,0l13 -3c1,0 3,-1 3,-3l5 -14c0,0 0,-1 0,-1l0 -11 3 -18 0 -41 2 -12 2 -54 -1 -11 2 -12 2 -31 -1 -10 1 -11 6 -122 -1 -10 1 -12 2 -11 1 -14 -1 -11 3 -22 -1 -12 4 -9 11 -6 32 1 18 3 63 -1 10 3c1,0 2,0 3,0l12 -4c1,0 2,-1 3,-2l6 -12c0,-1 0,-1 0,-2l0 -12 1 -11c0,-1 0,-2 0,-2z"/>
  <path class="fil0" d="M12151 16908l-2 -9 1 -12 -11 -105 0 -14 -2 -10 -6 -84 -2 -9 -3 -36 0 -15 -2 -10 0 -13 -2 -11 -2 -49 -2 -9 -2 -34 -3 -13 0 -23c0,-1 0,-2 -1,-3l-9 -10c0,0 -1,-1 -1,-1l-11 -6c-1,0 -2,-1 -3,0l-19 3 -20 7c-1,0 -3,2 -3,3l-4 20c0,1 0,1 0,2l4 28 0 14 2 10 1 23 2 13 0 14 2 11 0 23c0,0 0,1 0,1l3 13 1 22 -4 9 -9 7 -10 -1c-1,0 -1,0 -1,0l-23 6 -47 3 -17 2 -44 2 -10 2 -12 0 -13 2 -12 0 -34 4 -12 0 -10 -3 -7 -9 -1 -25 -2 -10 -10 -117 1 -19c0,0 0,-1 0,-1l-2 -10c0,0 0,-1 -1,-1l-6 -10c-1,-1 -1,-2 -3,-2l-21 -6c0,0 -1,0 -2,0l-19 2c-1,0 -1,0 -2,1l-11 6c-1,1 -2,1 -2,2l-5 13c0,1 0,1 0,2l4 35 0 14 2 10 -1 10c0,0 0,1 0,1l4 24 2 22 0 14c0,0 0,1 0,1l2 9 6 85 2 10 0 11 2 13 0 11 2 11 2 35 3 13 -1 17 4 30 1 23 4 24 1 11 0 12 2 11 1 14 2 10c0,0 0,1 0,1l6 11c1,1 2,2 3,2l18 3c0,0 0,0 1,0 0,0 0,0 0,0l20 -1c1,0 1,0 2,0l11 -5c1,-1 2,-1 2,-2l4 -11c0,-1 0,-1 0,-2l-1 -20 -2 -11 -2 -31 1 -13 -1 -12 -2 -8 1 -12c0,0 0,-1 0,-1l-2 -11 -6 -58 1 -11 -2 -13 -1 -9 4 -10 9 -4 12 -1 11 -2 10 2c1,0 1,0 2,0l12 -2 11 -4 11 1 60 -7 25 -1 22 -3 19 1 40 -6 10 6 5 7 2 12 0 12 2 20 0 13 2 10 1 12 -1 12c0,1 0,1 0,2l3 11 2 9 -1 13c0,0 0,1 0,1l2 12 1 11 -1 12 6 47c0,1 0,2 1,2l8 10c1,1 1,1 2,2l11 4c0,0 1,0 1,0l12 0 15 1c1,0 2,0 3,-1l11 -9c1,0 1,-1 1,-2l5 -12c0,-1 0,-2 0,-2l-2 -10 0 -14z"/>
  <path class="fil0" d="M12730 16842c1,0 1,0 1,-1l11 -7c1,-1 1,-1 2,-2l4 -14c0,-1 0,-1 0,-2l-4 -23c0,-1 -1,-2 -2,-3l-10 -8c-1,-1 -1,-1 -2,-1l-13 -3c0,0 -1,0 -1,0l-11 1c0,0 -1,0 -1,0l-9 4 -12 3 -12 1c0,0 -1,0 -1,0l-9 4 -14 2 -22 6 -35 6 -23 5 -12 4 -10 2 -13 1 -21 7 -10 -2 -6 -9 -6 -20 -1 -10c0,0 0,-1 0,-1l-6 -17 -2 -16 -4 -11 -2 -12 -4 -12 -2 -23 -4 -16 2 -16 12 -8 41 -7 32 -9 9 1c1,0 1,0 2,0l23 -7 12 -2 9 -3 11 0c0,0 1,0 1,0l46 -13c0,0 1,0 1,-1l10 -7c1,-1 1,-1 2,-2l4 -12c0,-1 0,-2 0,-3l-4 -9 -2 -10c0,-1 0,-1 -1,-2l-7 -10c-1,-1 -1,-1 -2,-2l-11 -3c-1,0 -1,0 -2,0l-24 6 -16 2 -17 5 -13 1 -57 16 -10 0c0,0 -1,0 -1,0l-12 4 -43 8 -10 -3 -7 -10 -3 -10 -3 -25 -4 -10 -3 -18 -6 -16 -10 -49 2 -9 9 -7 10 -5 36 -4 33 -10 60 -13 15 -1 22 -7 22 -5c1,0 1,0 1,-1l11 -7c1,-1 1,-1 2,-2l5 -12c0,-1 0,-2 0,-3l-3 -10 -2 -11c0,-1 -1,-1 -1,-2l-9 -9c-1,-1 -1,-1 -2,-1l-14 -4c-1,0 -2,0 -3,0l-11 5 -10 1c0,0 -1,0 -1,0l-10 4 -13 2 -12 4 -13 2 -115 27 -14 1c0,0 -1,0 -1,0l-21 7 -22 5 -14 1c-1,0 -2,0 -3,1l-9 8c-1,1 -1,2 -1,3l-2 20c0,1 0,1 0,2l14 52 0 12 3 13 6 19 5 24 5 17 5 35 6 16 51 232 4 10 3 11 0 11c0,1 0,1 0,1l4 11 8 12c1,1 2,2 3,2l15 4c0,0 1,0 1,0 1,0 1,0 1,0l11 -4 58 -13 11 -2 47 -12 13 -2 10 -4 11 -1c0,0 1,0 1,0l10 -4 25 -4 12 -3 24 -4 10 -4 24 -5z"/>
  <path class="fil0" d="M13620 16406l-1 -11 -3 -13 -1 -11c0,0 0,-1 0,-1l-6 -16 -9 -18 -7 -9 -5 -12c0,-1 -1,-1 -1,-2l-28 -22 -21 -10c0,0 -1,0 -1,0l-13 -3 -10 0 -11 -4c-1,0 -1,0 -2,0l-36 3 -12 0c0,0 -1,0 -1,0l-10 4 -49 10 -67 22 -27 5 -11 3 -11 -1 -13 1 -22 -6 -11 -4 -7 -6 -14 -25 -6 -18 -3 -22 4 -20 7 -10 5 -10 14 -19 8 -8 9 -7 51 -27 13 -3 8 -3 25 -4 23 -1 11 1 23 6 8 3 9 6 8 10c0,0 1,1 1,1l12 7c1,0 2,1 3,1l14 -1c0,0 1,0 1,0l21 -9c1,0 1,-1 1,-1l9 -10c1,-1 1,-2 1,-3l-1 -13c0,-1 0,-1 -1,-2l-7 -11c0,0 -1,-1 -1,-1l-13 -10 -12 -12c0,0 -1,0 -1,-1l-23 -13 -33 -10 -24 -3 -10 1 -24 -1c0,0 -1,0 -1,0l-47 11 -22 8 -14 6 -11 4c0,0 -1,0 -1,1l-36 24 -8 7 -11 8 -8 8 -10 13 -14 15 -13 19c0,1 -1,1 -1,2l-2 12 -8 20 -2 12 -1 24 2 25 3 11 6 16 10 18 6 9 16 18 11 10 11 6 21 7 12 5c1,0 1,0 2,0l12 0 10 3c1,0 1,0 2,0l47 -7 11 -3 15 -2 23 -5 43 -15 14 -2 11 -3c0,0 1,0 1,0l9 -5 10 0c0,0 1,0 1,0l10 -4 22 -5 11 2 12 0 10 2 9 4 18 14 5 7 8 17 10 28 -2 9 -1 14 -13 28 -19 21 -41 35 -49 19 -42 8 -24 -2 -21 -4 -12 -6 -14 -9 -14 -10 -12 -7c-1,0 -2,-1 -2,-1l-18 1c0,0 -1,0 -1,0l-17 7c-1,0 -1,1 -2,1l-8 10c-1,1 -1,2 -1,3l0 13c0,1 0,2 1,3l16 20 9 8 21 14 43 18c0,0 1,0 1,0l11 1 12 3c0,0 1,0 1,0l24 0 23 -4 13 0 12 -2 23 -6 23 -10 18 -6 27 -14 11 -7 9 -7 20 -14 15 -15 10 -7c1,0 1,-1 1,-1l13 -21 8 -8c0,0 1,-1 1,-1l11 -21 6 -23 4 -25c0,-1 0,-1 0,-2l-2 -10z"/>
  <path class="fil0" d="M14156 16178l-12 -20c0,-1 -1,-2 -2,-2l-12 -4c-1,0 -1,0 -2,0l-13 2c0,0 -1,0 -1,0l-10 5c0,0 -1,0 -1,1l-7 6 -11 7 -11 5c0,0 -1,0 -1,1l-7 6 -13 7 -19 13 -32 17 -20 12 -10 8 -9 6 -12 6 -17 13 -10 1 -9 -7 -12 -17 -4 -10c0,0 0,-1 -1,-1l-11 -14 -7 -15 -7 -9 -6 -11 -8 -10 -10 -21 -10 -14 -4 -15 9 -11 37 -20 27 -19 9 -2c1,0 1,0 2,-1l19 -15 11 -6 8 -6 10 -4c0,0 1,0 1,-1l39 -28c0,0 1,-1 1,-1l7 -10c1,-1 1,-2 1,-3l0 -13c0,-1 0,-2 -1,-3l-6 -7 -6 -9c0,-1 -1,-1 -1,-1l-10 -7c-1,-1 -2,-1 -3,-1l-12 1c-1,0 -1,0 -2,1l-21 14 -14 7 -14 10 -12 5 -48 34 -9 3c0,0 -1,0 -1,1l-10 8 -38 22 -11 1 -10 -7 -6 -9 -12 -23 -7 -9 -8 -16 -11 -13 -25 -43 -1 -9 7 -9 8 -8 32 -16 28 -21 52 -32 13 -6 18 -14 20 -12c0,0 1,-1 1,-1l8 -10c1,-1 1,-2 1,-3l0 -13c0,-1 0,-2 -1,-3l-6 -8 -6 -9c0,-1 -1,-1 -2,-2l-12 -6c-1,0 -1,0 -2,-1l-14 1c-1,0 -2,0 -3,1l-9 8 -10 4c0,0 -1,0 -1,1l-8 7 -12 6 -11 7 -11 6 -100 64 -12 5c0,0 -1,0 -1,1l-18 14 -19 12 -13 6c-1,0 -2,1 -2,2l-6 11c0,1 -1,2 0,3l4 19c0,1 0,1 1,2l30 44 4 11 7 11 12 16 13 22 11 14 16 32 11 13 126 202 7 8 6 10 4 10c0,0 0,1 1,1l8 9 11 9c1,1 2,1 3,1 0,0 0,0 0,0l15 -1c1,0 2,0 2,-1l9 -7 50 -31 10 -5 40 -27 12 -6 8 -7 10 -5c0,0 1,0 1,-1l8 -7 22 -12 10 -7 21 -11 8 -7 21 -13c0,0 1,-1 1,-1l8 -10c1,-1 1,-2 1,-3l0 -15c0,-1 0,-1 -1,-2z"/>
  <path class="fil0" d="M14484 15701l-2 8 -10 6c0,0 -1,1 -1,1l-15 18 -107 89 -10 4 -5 -5 -9 -22 -2 -12 -18 -58 -1 -11c0,0 0,-1 0,-1l-4 -9 -14 -49 -2 -11 -8 -21 -5 -24 0 -5 5 0 32 15 9 6 10 4 11 3 11 9 56 26 11 3 10 6 32 14 11 9c0,0 1,1 1,1l8 3 4 6zm237 31l-25 -13 -29 -11 -13 -8 -116 -52 -12 -8 -193 -86 -21 -12 -11 -4 -9 -5 -23 -9 -20 -11 -21 -8c0,0 -1,0 -1,0l-17 -1c-2,0 -2,0 -3,1l-14 12c-1,1 -1,2 -1,3l-3 16c0,1 0,1 0,2l24 92 5 10 2 16 9 28 2 13 4 12 6 11 30 112 2 13 4 11 3 13 4 8 4 25 19 68 5 11 1 10 3 14 5 11 3 21c0,0 0,1 0,1l6 11 5 15c0,1 1,2 2,3l9 4c1,0 1,0 2,0 1,0 2,0 2,-1l11 -7 10 -9 11 -8c1,0 1,-1 1,-2l7 -15c0,0 0,-1 0,-1l1 -15c0,0 0,-1 0,-1l-13 -58 -5 -11 -1 -11c0,-1 0,-1 0,-2l-6 -11 -2 -9 2 -13 12 -18 14 -11 16 -16 20 -15 7 -9 27 -22 10 -6c1,0 1,-1 1,-1l6 -8 36 -31 10 -5c1,0 1,-1 2,-1l6 -9 9 -7 11 -5 14 1 99 45c1,0 1,0 2,0l15 1c1,0 1,0 2,0l14 -7 22 -17 9 -10c1,-1 1,-3 1,-4l-4 -11c0,-1 -1,-2 -2,-2z"/>
  <polygon class="fil0" points="7822,16231 7820,16226 7816,16215 7802,16196 7794,16187 7788,16182 7784,16177 7767,16166 7762,16163 7756,16160 7751,16158 7743,16156 7734,16152 7723,16150 7716,16151 7706,16152 7700,16153 7689,16158 7678,16163 7674,16167 7668,16173 7662,16180 7659,16184 7654,16195 7652,16201 7652,16207 7653,16218 7653,16225 7655,16231 7656,16236 7668,16256 7671,16261 7675,16267 7681,16276 7697,16293 7701,16299 7704,16303 7709,16306 7711,16311 7715,16316 7722,16325 7723,16331 7725,16337 7726,16342 7726,16348 7723,16359 7720,16363 7714,16370 7702,16381 7698,16381 7690,16384 7674,16383 7660,16378 7636,16366 7617,16347 7605,16329 7601,16317 7599,16306 7599,16299 7600,16291 7602,16283 7603,16275 7599,16267 7592,16261 7586,16259 7580,16261 7574,16272 7572,16277 7570,16289 7570,16312 7572,16318 7573,16324 7577,16335 7584,16345 7586,16350 7589,16355 7596,16364 7606,16373 7611,16380 7623,16389 7628,16393 7633,16395 7643,16401 7653,16405 7658,16409 7670,16410 7676,16413 7687,16414 7699,16412 7711,16409 7715,16406 7720,16404 7726,16400 7730,16398 7736,16392 7742,16385 7745,16379 7750,16374 7754,16357 7755,16346 7754,16340 7751,16335 7751,16328 7742,16312 7740,16307 7736,16303 7722,16283 7698,16256 7691,16245 7687,16240 7686,16235 7682,16229 7681,16217 7680,16211 7682,16206 7691,16194 7698,16188 7708,16182 7719,16180 7725,16181 7730,16181 7742,16184 7748,16187 7753,16190 7776,16208 7780,16214 7783,16217 7790,16228 7795,16238 7796,16244 7798,16256 7798,16261 7797,16266 7793,16272 7793,16279 7796,16285 7804,16293 7810,16295 7816,16292 7820,16287 7822,16279 7825,16271 7827,16259 7825,16242 "/>
  <path class="fil0" d="M8191 16613l-2 5 -1 5 0 6 -3 7 -6 30 0 6 -2 5 -3 17 -3 6 -1 5 -3 4 -6 0 -4 -5 -11 -6 -56 -42 -4 -6 3 -4 10 -7 5 -2 26 -15 5 -2 4 -3 22 -13 5 -2 10 -6 11 -5 5 -1 2 5 -4 18zm29 -67l-8 0 -42 22 -4 3 -8 3 -13 7 -6 2 -5 3 -5 4 -51 27 -6 2 -5 3 -6 3 -4 3 -11 5 -31 17 -5 4 -5 2 -6 3 -5 4 -10 4 -5 4 -7 4 -1 5 4 4 6 4 5 4 8 1 7 -1 26 -13 5 -4 6 -2 5 -4 5 -2 7 -1 11 4 7 6 10 6 9 8 5 3 14 11 4 4 5 2 19 14 4 4 5 2 5 4 4 5 1 8 -11 54 1 7 5 6 10 8 6 3 5 -3 3 -13 2 -16 2 -7 12 -63 2 -6 20 -103 3 -11 1 -6 1 -4 2 -12 3 -11 1 -11 -2 -8 -7 -6z"/>
  <polygon class="fil0" points="8703,16863 8673,16843 8662,16839 8642,16826 8631,16820 8626,16816 8621,16813 8614,16813 8607,16819 8605,16829 8608,16835 8613,16838 8619,16841 8624,16844 8628,16847 8633,16852 8632,16860 8612,16892 8608,16900 8605,16905 8602,16910 8599,16915 8596,16920 8574,16956 8572,16962 8568,16967 8555,16988 8553,16993 8540,17013 8537,17019 8534,17024 8528,17028 8522,17027 8513,17021 8508,17017 8503,17016 8498,17013 8493,17012 8486,17016 8484,17021 8482,17028 8488,17036 8502,17043 8506,17046 8513,17049 8538,17065 8543,17068 8553,17074 8561,17078 8574,17087 8581,17086 8587,17083 8590,17078 8591,17070 8588,17065 8583,17062 8578,17061 8573,17056 8569,17054 8564,17052 8560,17046 8561,17039 8564,17035 8567,17030 8569,17024 8580,17009 8582,17003 8585,16999 8591,16988 8594,16982 8598,16978 8600,16973 8604,16967 8607,16961 8659,16875 8664,16872 8671,16872 8675,16875 8687,16881 8692,16884 8698,16885 8705,16881 8708,16876 8707,16868 "/>
  <polygon class="fil0" points="9220,17128 9209,17123 9202,17123 9197,17126 9194,17132 9184,17153 9182,17158 9180,17164 9123,17289 9121,17291 9117,17286 9113,17272 9111,17266 9108,17249 9105,17244 9104,17238 9100,17227 9099,17221 9097,17215 9096,17209 9092,17199 9092,17193 9090,17187 9088,17181 9086,17176 9085,17170 9083,17166 9079,17147 9077,17142 9075,17136 9074,17130 9072,17125 9067,17108 9065,17103 9065,17096 9063,17091 9061,17086 9054,17057 9049,17050 9042,17048 9038,17053 9035,17057 9030,17069 9025,17078 9021,17090 9015,17100 9012,17106 9010,17111 9008,17116 9005,17122 9003,17127 8999,17132 8998,17137 8968,17202 8965,17207 8962,17213 8960,17218 8955,17228 8951,17238 8945,17247 8942,17255 8941,17260 8936,17269 8935,17277 8939,17283 8951,17288 8958,17288 8963,17283 8966,17276 8969,17271 8971,17266 8975,17257 8979,17250 8982,17241 8986,17236 9020,17160 9022,17155 9027,17143 9029,17137 9034,17128 9036,17122 9039,17119 9042,17122 9045,17133 9047,17138 9048,17145 9050,17150 9051,17156 9056,17172 9057,17179 9060,17184 9062,17196 9071,17224 9073,17235 9075,17241 9076,17247 9079,17258 9082,17263 9088,17286 9089,17292 9096,17314 9097,17321 9103,17343 9106,17349 9107,17355 9111,17361 9117,17364 9122,17358 9163,17274 9165,17268 9169,17257 9172,17252 9174,17247 9178,17242 9182,17230 9184,17226 9187,17220 9193,17210 9194,17205 9212,17167 9215,17161 9217,17156 9219,17151 9221,17146 9224,17141 9224,17133 "/>
  <polygon class="fil0" points="9734,17329 9689,17314 9676,17308 9667,17306 9663,17303 9657,17303 9639,17296 9634,17294 9573,17272 9566,17273 9561,17277 9557,17288 9558,17294 9563,17299 9568,17300 9574,17303 9601,17312 9607,17314 9612,17316 9617,17317 9622,17320 9627,17324 9627,17329 9617,17358 9616,17365 9614,17370 9610,17381 9605,17392 9604,17397 9569,17498 9567,17504 9565,17510 9560,17525 9557,17532 9557,17538 9562,17543 9569,17545 9573,17547 9580,17547 9585,17541 9587,17536 9591,17528 9597,17507 9599,17503 9608,17477 9609,17471 9611,17466 9617,17452 9618,17446 9620,17441 9641,17384 9642,17379 9644,17373 9646,17369 9648,17363 9650,17357 9654,17347 9655,17341 9659,17336 9667,17335 9683,17340 9691,17344 9721,17353 9726,17356 9732,17356 9737,17351 9739,17345 9741,17340 9740,17333 "/>
  <polygon class="fil0" points="10148,17575 10143,17573 10136,17571 10130,17571 10125,17568 10119,17567 10114,17566 10107,17564 10102,17563 10095,17561 10090,17559 10078,17556 10072,17555 10066,17554 10058,17552 10049,17550 10043,17552 10037,17557 10036,17563 10038,17570 10043,17574 10049,17575 10060,17579 10067,17580 10074,17583 10081,17584 10098,17589 10110,17591 10119,17593 10125,17595 10130,17596 10141,17600 10148,17598 10154,17589 10153,17579 "/>
  <path class="fil0" d="M10709 17648l-4 14 -2 5 -6 11 -8 8 -6 4 -5 3 -5 3 -6 2 -7 2 -6 0 -6 1 -10 0 -9 -2 -6 0 -6 -2 -7 -1 -11 0 -6 -2 -6 0 -7 -1 -6 -2 -6 -4 -1 -5 1 -7 1 -4 0 -6 2 -5 0 -7 1 -5 5 -35 2 -5 3 -23 1 -5 4 -6 6 -2 25 5 6 0 11 2 5 2 6 0 30 9 5 2 9 8 5 3 6 11 6 16 1 6 -1 16zm30 -28l-1 -6 -3 -8 -7 -13 -3 -5 -8 -9 -13 -11 -6 -2 -10 -7 -6 -1 -5 -2 -41 -7 -5 -1 -11 -2 -6 -1 -6 0 -28 -5 -6 0 -6 -1 -6 1 -4 6 0 6 -2 12 0 6 -1 5 -2 15 -2 8 -2 18 -1 5 -4 31 0 5 -3 11 -1 12 -1 5 0 7 -8 51 -1 6 -5 32 1 10 6 5 5 1 7 0 7 -2 3 -6 3 -10 1 -11 2 -12 3 -12 2 -15 4 -8 10 -1 9 0 12 3 6 0 12 2 9 0 13 3 9 1 11 -1 5 0 6 -1 9 -2 8 -2 6 -2 5 -4 6 -2 13 -11 11 -14 3 -4 2 -7 3 -6 3 -10 2 -10 1 -20 -1 -6 0 -6z"/>
  <polygon class="fil0" points="11266,17614 11260,17611 11253,17611 11248,17610 11242,17611 11236,17610 11229,17610 11223,17609 11164,17606 11157,17605 11146,17605 11134,17604 11127,17603 11122,17605 11118,17614 11117,17642 11116,17647 11116,17653 11116,17664 11115,17676 11115,17685 11112,17702 11113,17711 11105,17829 11106,17835 11106,17841 11104,17846 11104,17852 11107,17858 11113,17862 11119,17862 11148,17863 11154,17864 11178,17865 11184,17865 11190,17865 11196,17866 11201,17866 11213,17867 11220,17867 11231,17869 11237,17868 11249,17869 11255,17867 11259,17861 11260,17850 11256,17844 11250,17841 11245,17840 11240,17841 11233,17840 11227,17839 11222,17840 11215,17839 11204,17839 11186,17836 11175,17836 11168,17836 11162,17836 11156,17835 11145,17835 11139,17832 11137,17825 11137,17814 11138,17809 11138,17800 11139,17792 11139,17786 11139,17780 11139,17774 11141,17763 11141,17754 11145,17745 11153,17743 11174,17745 11191,17745 11196,17747 11208,17747 11214,17748 11219,17748 11224,17749 11248,17749 11254,17747 11258,17742 11257,17737 11258,17731 11255,17726 11250,17723 11238,17722 11230,17721 11221,17721 11215,17720 11186,17720 11181,17718 11174,17719 11152,17717 11146,17713 11144,17706 11144,17700 11146,17688 11145,17683 11147,17674 11146,17665 11148,17640 11151,17635 11158,17633 11163,17632 11181,17634 11198,17634 11229,17636 11236,17638 11240,17638 11247,17637 11258,17638 11264,17636 11269,17631 11268,17626 11269,17620 "/>
  <polygon class="fil0" points="11814,17620 11810,17614 11804,17612 11757,17614 11742,17614 11733,17614 11728,17614 11722,17615 11704,17616 11698,17615 11633,17617 11627,17620 11623,17626 11624,17637 11627,17643 11633,17646 11638,17645 11645,17645 11673,17644 11679,17644 11685,17644 11690,17643 11696,17644 11702,17646 11704,17651 11705,17681 11707,17688 11706,17693 11707,17705 11706,17717 11707,17722 11710,17829 11711,17835 11710,17841 11712,17858 11712,17865 11714,17870 11720,17873 11727,17873 11732,17873 11739,17871 11741,17864 11741,17858 11741,17849 11740,17828 11740,17822 11739,17796 11738,17790 11739,17784 11739,17769 11738,17763 11738,17758 11736,17697 11735,17692 11735,17686 11736,17681 11736,17674 11735,17668 11736,17658 11735,17651 11737,17646 11743,17642 11760,17641 11769,17642 11800,17639 11806,17640 11812,17638 11814,17632 11814,17625 "/>
  <polygon class="fil0" points="12355,17795 12348,17793 12343,17793 12338,17794 12331,17795 12325,17795 12320,17797 12313,17797 12302,17799 12284,17800 12273,17801 12266,17803 12261,17804 12255,17804 12244,17806 12238,17804 12235,17798 12232,17787 12233,17782 12230,17773 12230,17765 12229,17759 12228,17753 12227,17747 12227,17736 12225,17727 12227,17718 12235,17714 12256,17712 12273,17710 12278,17710 12290,17708 12296,17708 12301,17707 12306,17707 12330,17703 12335,17700 12338,17694 12336,17689 12336,17684 12332,17678 12327,17677 12315,17678 12307,17679 12298,17680 12292,17680 12263,17685 12258,17685 12251,17686 12229,17688 12223,17686 12219,17680 12218,17674 12218,17662 12216,17656 12216,17648 12214,17639 12211,17613 12213,17608 12219,17605 12225,17602 12243,17602 12260,17599 12290,17595 12297,17595 12302,17595 12308,17593 12319,17592 12325,17589 12328,17583 12327,17578 12326,17572 12322,17567 12316,17565 12310,17566 12304,17566 12299,17568 12292,17568 12286,17569 12280,17570 12221,17577 12214,17577 12203,17580 12191,17581 12184,17581 12179,17584 12177,17594 12182,17621 12181,17627 12182,17633 12184,17643 12185,17655 12187,17664 12188,17681 12190,17690 12204,17807 12205,17813 12206,17819 12206,17824 12207,17830 12210,17836 12217,17838 12223,17837 12252,17833 12258,17833 12282,17829 12288,17829 12293,17827 12299,17827 12305,17826 12317,17825 12323,17824 12334,17823 12340,17822 12352,17821 12357,17818 12360,17811 12359,17800 "/>
  <path class="fil0" d="M12854 17604l-6 2 -5 2 -9 3 -8 2 -6 0 -24 6 -12 1 -12 4 -6 -2 -5 -5 -2 -6 0 -6 -9 -40 -2 -5 -1 -6 0 -5 -5 -17 -1 -6 2 -7 5 -3 6 -2 42 -9 6 -2 8 -1 9 -2 11 0 18 4 5 3 6 3 8 9 7 10 5 14 2 9 -1 18 -4 10 -4 5 -3 6 -13 11zm95 93l-4 -5 -9 -6 -14 -13 -6 -4 -4 -4 -14 -11 -9 -9 -4 -2 -15 -13 -2 -5 3 -6 11 -5 8 -8 6 -10 4 -5 3 -6 5 -17 1 -17 -2 -15 -2 -9 -7 -16 -3 -5 -4 -4 -3 -5 -18 -14 -6 -3 -6 -3 -5 -1 -5 0 -11 -3 -6 1 -6 -1 -6 0 -6 1 -17 5 -6 1 -6 0 -11 4 -7 1 -5 2 -6 0 -12 2 -5 2 -13 2 -5 2 -6 0 -5 5 -2 7 2 4 0 6 6 28 2 6 1 6 1 6 2 5 0 4 1 7 4 11 2 12 4 11 9 47 2 5 2 5 0 5 7 30 2 6 1 5 2 5 1 6 2 6 1 6 4 5 6 2 7 0 5 -2 6 -6 1 -6 -9 -40 0 -6 -3 -7 0 -5 -2 -6 -1 -8 0 -10 6 -4 6 -2 6 -1 7 0 6 -3 6 0 6 -2 9 -2 11 -1 7 3 18 16 6 3 4 5 5 4 4 4 4 4 5 3 4 5 13 10 5 6 9 8 7 2 7 1 6 -1 5 -1 5 0 6 -2 0 -6 -5 -4z"/>
  <polygon class="fil0" points="13494,17493 13493,17486 13493,17481 13491,17473 13487,17464 13484,17459 13482,17452 13470,17440 13460,17434 13454,17432 13448,17432 13442,17429 13424,17429 13418,17429 13413,17430 13388,17433 13354,17440 13340,17442 13335,17443 13329,17441 13322,17441 13311,17437 13306,17434 13302,17431 13296,17417 13294,17407 13293,17396 13297,17386 13301,17381 13304,17376 13312,17367 13317,17363 13322,17360 13349,17349 13356,17349 13360,17347 13373,17347 13385,17347 13390,17349 13402,17353 13406,17355 13410,17359 13414,17365 13419,17369 13426,17369 13437,17365 13442,17361 13442,17355 13439,17349 13434,17343 13428,17336 13418,17329 13403,17322 13391,17320 13386,17320 13374,17318 13351,17321 13340,17324 13332,17326 13327,17327 13308,17337 13303,17340 13298,17343 13293,17346 13287,17353 13280,17359 13273,17368 13271,17374 13266,17383 13265,17389 13263,17401 13263,17413 13264,17418 13266,17426 13270,17435 13272,17440 13279,17449 13283,17454 13289,17458 13299,17462 13304,17465 13310,17466 13315,17468 13339,17467 13345,17466 13352,17466 13363,17465 13385,17459 13392,17459 13398,17458 13403,17456 13408,17456 13414,17455 13426,17453 13431,17455 13437,17456 13443,17458 13447,17461 13456,17469 13458,17473 13461,17482 13465,17497 13463,17502 13462,17509 13453,17523 13442,17533 13420,17548 13394,17555 13372,17557 13360,17555 13349,17552 13343,17548 13336,17543 13330,17538 13324,17533 13315,17533 13306,17535 13302,17540 13301,17546 13307,17557 13311,17561 13320,17569 13341,17580 13346,17581 13352,17583 13364,17584 13376,17583 13381,17584 13388,17584 13399,17582 13411,17578 13420,17576 13433,17571 13439,17568 13444,17565 13454,17560 13462,17552 13468,17550 13475,17540 13480,17536 13486,17527 13491,17516 13494,17503 13493,17498 "/>
  <path class="fil0" d="M14009 17288l-4 12 -3 5 -3 4 -5 5 -10 8 -8 4 -9 3 -11 6 -16 7 -9 5 -9 3 -5 2 -4 4 -7 -1 -5 -4 -5 -11 -4 -7 -2 -8 -17 -36 -2 -7 1 -7 4 -5 5 -3 7 -2 4 -2 6 -4 5 -1 44 -20 6 -2 16 -2 6 0 6 2 6 2 5 3 5 3 7 10 4 8 3 9 1 6 0 11zm-147 -42l-6 0 -5 -4 -9 -22 -6 -10 -2 -8 -11 -24 0 -7 6 -7 8 -3 15 -7 8 -2 8 -5 6 -1 22 -10 6 -1 12 0 5 2 6 1 6 2 4 4 4 4 5 6 4 7 3 9 2 12 -1 6 -3 8 -5 7 -4 5 -14 11 -16 8 -6 1 -30 15 -5 2 -6 1zm171 3l-12 -18 -4 -4 -9 -8 -10 -4 -29 -5 1 -3 3 -4 6 -16 1 -11 0 -6 -1 -6 -2 -6 -3 -6 -3 -9 -3 -6 -7 -9 -4 -4 -15 -10 -5 -2 -6 -1 -6 -2 -12 -2 -6 1 -12 2 -5 2 -6 1 -5 2 -8 4 -9 2 -4 3 -6 1 -28 13 -6 2 -24 12 -8 2 -4 5 0 7 8 19 3 5 13 30 5 10 2 5 5 10 2 6 3 5 7 16 3 5 2 6 4 8 2 6 3 6 3 7 6 10 28 64 5 5 7 1 5 -3 6 -2 37 -18 6 -2 5 -4 5 -2 6 -2 7 -5 8 -3 31 -16 13 -14 7 -9 2 -5 3 -4 2 -6 2 -12 -1 -17 -6 -20z"/>
  <polygon class="fil0" points="14549,16965 14540,16949 14536,16945 14534,16938 14520,16913 14516,16909 14512,16900 14507,16894 14504,16888 14501,16883 14499,16878 14487,16858 14483,16853 14474,16837 14472,16832 14463,16817 14457,16813 14451,16814 14446,16817 14440,16819 14436,16826 14437,16832 14448,16852 14451,16857 14460,16873 14463,16879 14467,16883 14483,16913 14489,16920 14505,16950 14511,16959 14526,16990 14527,16996 14528,17002 14527,17014 14523,17030 14516,17040 14512,17045 14508,17048 14504,17052 14498,17056 14492,17062 14478,17068 14467,17071 14461,17072 14455,17072 14449,17072 14444,17072 14422,17065 14418,17060 14413,17057 14400,17041 14393,17028 14390,17023 14386,17015 14375,16997 14372,16990 14367,16982 14363,16977 14361,16972 14321,16906 14319,16901 14313,16896 14304,16900 14297,16905 14292,16911 14292,16917 14295,16921 14306,16942 14310,16948 14313,16952 14321,16965 14325,16973 14328,16978 14331,16982 14343,17003 14346,17009 14349,17012 14352,17019 14355,17024 14357,17028 14364,17037 14369,17049 14382,17069 14385,17073 14389,17077 14394,17081 14403,17088 14408,17090 14414,17094 14419,17096 14424,17098 14436,17101 14441,17101 14459,17101 14476,17097 14482,17097 14488,17095 14492,17091 14497,17089 14518,17077 14527,17069 14531,17065 14535,17062 14539,17057 14543,17052 14545,17047 14548,17042 14555,17026 14556,17021 14557,17009 14558,17003 14558,16998 14557,16992 "/>
  <path class="fil0" d="M14969 16609l0 7 -8 15 -4 5 -4 4 -7 7 -6 5 -6 2 -19 16 -10 6 -9 8 -6 1 -6 -3 -4 -4 -3 -5 -25 -33 -4 -4 -4 -5 -2 -4 -11 -14 -3 -5 -1 -7 3 -5 5 -5 35 -25 5 -4 7 -4 8 -6 10 -5 18 -3 6 1 6 0 11 5 11 6 10 11 5 8 6 17 0 11 -2 7zm117 69l-6 -3 -11 -2 -18 -6 -7 -1 -5 -2 -17 -4 -12 -4 -5 -1 -19 -6 -3 -3 0 -6 7 -9 5 -11 2 -12 1 -6 0 -7 -2 -17 -5 -16 -8 -13 -6 -7 -13 -12 -5 -3 -5 -3 -5 -3 -22 -5 -6 0 -7 -1 -5 1 -5 2 -12 2 -5 3 -6 2 -5 2 -5 3 -14 12 -5 3 -6 3 -9 8 -6 4 -3 4 -6 3 -10 7 -4 4 -11 7 -4 4 -6 2 -2 7 1 7 3 3 3 5 17 23 5 5 4 5 3 5 4 4 2 4 4 6 8 9 6 10 7 8 28 40 4 4 4 4 2 4 18 25 4 5 3 4 4 4 3 5 4 5 3 5 6 2 6 -1 6 -3 4 -4 3 -7 -2 -6 -24 -33 -2 -5 -5 -5 -2 -4 -4 -5 -4 -7 -4 -9 4 -6 4 -4 5 -3 6 -3 4 -5 6 -3 5 -4 8 -5 10 -5 8 0 23 8 6 0 6 3 6 2 6 2 5 2 6 1 6 3 16 3 7 3 12 3 8 -1 7 -2 5 -3 4 -3 5 -2 4 -4 -3 -5 -7 -2z"/>
  <polygon class="fil0" points="15528,16256 15528,16249 15526,16238 15524,16232 15522,16224 15515,16210 15512,16206 15510,16201 15503,16190 15500,16187 15496,16183 15493,16178 15489,16174 15483,16172 15475,16173 15465,16184 15458,16190 15454,16194 15450,16199 15445,16203 15440,16207 15436,16211 15428,16220 15414,16231 15401,16244 15399,16251 15402,16257 15406,16262 15412,16265 15418,16263 15423,16260 15426,16255 15431,16252 15435,16248 15444,16241 15453,16232 15456,16228 15470,16216 15473,16212 15480,16211 15485,16213 15496,16235 15498,16241 15501,16252 15501,16257 15502,16270 15498,16287 15495,16292 15493,16297 15491,16303 15474,16327 15460,16339 15455,16343 15450,16346 15435,16354 15418,16360 15412,16360 15400,16361 15376,16358 15349,16345 15339,16338 15336,16334 15331,16330 15324,16323 15318,16317 15315,16312 15309,16303 15305,16297 15301,16287 15298,16281 15296,16275 15293,16258 15294,16253 15293,16246 15293,16240 15299,16218 15310,16197 15314,16192 15345,16165 15351,16162 15356,16159 15373,16154 15388,16151 15396,16152 15412,16156 15420,16156 15426,16154 15432,16149 15436,16145 15438,16140 15434,16135 15430,16132 15424,16131 15419,16128 15411,16126 15407,16125 15400,16124 15395,16124 15389,16124 15383,16124 15376,16124 15370,16126 15365,16127 15358,16128 15354,16131 15348,16132 15343,16136 15335,16139 15317,16151 15305,16161 15299,16168 15295,16171 15292,16176 15285,16185 15281,16189 15279,16195 15275,16201 15266,16228 15265,16234 15264,16240 15264,16251 15264,16257 15264,16263 15264,16269 15268,16287 15274,16303 15285,16325 15292,16334 15295,16338 15302,16346 15308,16351 15312,16355 15317,16359 15322,16363 15326,16366 15347,16379 15358,16384 15387,16390 15393,16390 15398,16391 15404,16390 15410,16391 15416,16389 15427,16388 15433,16385 15444,16381 15449,16379 15460,16374 15470,16367 15476,16364 15487,16355 15497,16344 15505,16334 15508,16329 15512,16324 15515,16320 15524,16297 15528,16279 15529,16274 15529,16262 "/>
  <polygon class="fil0" points="7584,9132 7586,9137 7589,9142 7593,9154 7597,9183 7597,9210 7598,9218 7598,9229 7600,9236 7599,9249 7600,9254 7600,9259 7601,9265 7602,9306 7603,9313 7603,9318 7604,9324 7604,9330 7604,9336 7606,9343 7611,9347 7616,9344 7642,9320 7646,9318 7656,9309 7659,9305 7668,9297 7673,9294 7676,9290 7685,9282 7690,9277 7700,9268 7707,9263 7713,9256 7720,9251 7724,9247 7727,9241 7726,9235 7722,9231 7718,9227 7713,9225 7707,9227 7697,9235 7692,9239 7684,9247 7679,9250 7662,9266 7656,9270 7648,9279 7637,9289 7631,9291 7628,9288 7628,9282 7628,9275 7628,9270 7626,9259 7626,9246 7625,9240 7626,9235 7623,9194 7622,9188 7623,9183 7621,9162 7621,9153 7616,9130 7614,9126 7602,9105 7597,9100 7592,9095 7574,9083 7568,9080 7563,9080 7552,9078 7540,9078 7534,9079 7512,9087 7506,9091 7489,9106 7485,9111 7481,9115 7478,9120 7475,9126 7471,9131 7468,9142 7466,9153 7466,9159 7466,9165 7469,9177 7476,9192 7480,9198 7487,9200 7496,9196 7501,9188 7500,9180 7495,9169 7493,9152 7494,9146 7503,9131 7513,9120 7525,9112 7542,9105 7553,9106 7559,9108 7565,9110 7581,9126 "/>
  <polygon class="fil0" points="7993,8960 7999,8967 8002,8972 8006,8976 8008,8983 8004,8988 7990,8998 7981,9006 7977,9009 7974,9015 7975,9021 7979,9026 7985,9029 7992,9028 8021,9007 8025,9003 8029,8999 8035,8996 8058,8979 8062,8974 8068,8971 8074,8968 8078,8964 8083,8960 8085,8954 8084,8947 8081,8943 8075,8939 8068,8940 8064,8943 8059,8948 8054,8950 8050,8953 8046,8958 8041,8961 8035,8962 8029,8958 8025,8954 8021,8949 7975,8889 7973,8884 7952,8856 7948,8851 7945,8847 7937,8838 7931,8828 7921,8817 7918,8812 7913,8804 7909,8800 7900,8787 7894,8783 7887,8785 7875,8793 7868,8798 7864,8801 7855,8809 7846,8815 7842,8819 7839,8824 7840,8831 7844,8836 7849,8839 7855,8838 7860,8835 7864,8831 7870,8828 7878,8821 7884,8820 7890,8823 7893,8827 7907,8845 7910,8850 7914,8856 7918,8860 7921,8865 7932,8880 7936,8884 7940,8889 7942,8892 7967,8925 7970,8930 7990,8955 "/>
  <polygon class="fil0" points="8605,8392 8609,8398 8614,8409 8617,8414 8659,8493 8661,8499 8666,8506 8668,8511 8670,8517 8673,8523 8677,8527 8683,8540 8691,8554 8693,8560 8698,8563 8705,8562 8717,8557 8720,8552 8720,8544 8694,8496 8691,8488 8675,8460 8669,8446 8666,8441 8664,8436 8658,8426 8656,8422 8652,8416 8646,8403 8642,8395 8642,8391 8646,8392 8689,8412 8694,8415 8705,8420 8716,8426 8727,8431 8732,8435 8737,8437 8743,8440 8748,8441 8753,8445 8759,8447 8766,8449 8771,8446 8773,8440 8773,8434 8777,8410 8778,8398 8780,8393 8781,8386 8781,8381 8785,8357 8785,8351 8787,8346 8787,8339 8789,8333 8790,8321 8790,8315 8794,8312 8797,8314 8799,8318 8802,8324 8814,8348 8819,8355 8850,8416 8853,8422 8856,8427 8872,8459 8875,8462 8880,8467 8887,8466 8892,8464 8898,8461 8902,8455 8902,8449 8897,8438 8892,8431 8890,8423 8886,8418 8881,8408 8877,8402 8875,8396 8872,8391 8869,8387 8867,8381 8862,8371 8859,8366 8855,8358 8851,8352 8849,8348 8840,8331 8837,8327 8829,8308 8815,8283 8804,8261 8801,8257 8798,8251 8796,8245 8791,8236 8785,8232 8778,8235 8775,8243 8773,8247 8773,8254 8771,8259 8771,8265 8766,8295 8766,8301 8762,8325 8760,8330 8751,8402 8746,8405 8741,8407 8736,8404 8725,8399 8714,8393 8708,8391 8693,8383 8688,8381 8677,8374 8638,8357 8633,8355 8611,8344 8606,8340 8595,8337 8588,8335 8581,8339 8581,8345 8585,8351 "/>
  <path class="fil0" d="M9237 8182l1 -31 1 -5 -1 -5 1 -25 1 -5 0 -11 1 -12 2 -4 5 1 14 13 3 4 4 3 5 3 4 6 22 21 5 4 4 4 13 12 4 6 4 3 2 5 -3 5 -6 1 -10 6 -65 25 -7 1 -2 -5 -1 -12 1 -6zm-36 126l0 8 4 3 6 -2 6 -3 6 -2 5 -6 3 -7 3 -29 0 -6 1 -6 -1 -6 1 -5 3 -7 9 -7 8 -3 10 -5 12 -4 5 -3 17 -6 6 -1 4 -3 22 -9 6 -1 5 -3 6 -2 7 -1 7 3 40 37 7 3 7 -1 13 -4 6 -4 0 -6 -9 -10 -12 -10 -5 -6 -47 -43 -4 -5 -78 -71 -8 -9 -5 -4 -3 -4 -10 -8 -8 -8 -9 -7 -8 -3 -9 3 -4 7 -3 47 1 6 -2 8 0 15 -1 6 0 6 1 7 -4 58 -1 6 0 6 -1 6 0 5 -2 12 -2 35 0 6 -1 5 -1 7 1 7 -2 11 1 6z"/>
  <polygon class="fil0" points="9829,7848 9829,7842 9831,7837 9832,7830 9829,7825 9819,7828 9814,7829 9809,7830 9803,7836 9798,7842 9797,7847 9793,7860 9793,7864 9782,7902 9781,7912 9778,7917 9777,7923 9774,7941 9768,7958 9766,7970 9761,7970 9757,7967 9748,7959 9744,7954 9739,7950 9735,7947 9725,7938 9690,7906 9686,7902 9681,7899 9672,7891 9667,7886 9663,7883 9656,7879 9645,7881 9632,7885 9628,7887 9627,7892 9632,7896 9637,7900 9646,7908 9649,7912 9653,7915 9658,7920 9667,7927 9675,7935 9680,7938 9685,7942 9690,7945 9698,7954 9707,7962 9711,7966 9720,7974 9724,7978 9729,7980 9742,7992 9747,7997 9752,8001 9757,8007 9763,8020 9765,8032 9787,8098 9791,8104 9798,8104 9804,8103 9809,8100 9814,8096 9816,8089 9814,8084 9804,8051 9802,8045 9801,8040 9798,8030 9795,8022 9790,8007 9789,7997 9789,7987 9793,7978 9794,7971 9796,7965 9798,7954 9802,7944 9803,7937 9805,7932 9811,7910 9812,7904 9814,7898 9816,7893 9819,7881 9820,7875 9822,7871 9825,7858 9827,7853 "/>
  <path class="fil0" d="M10240 7896l-7 -1 -1 -5 2 -12 2 -6 6 -30 2 -5 0 -5 5 -25 2 -5 2 -11 4 -12 3 -4 5 2 11 15 2 4 3 4 5 4 3 7 18 25 4 4 3 5 11 14 3 7 3 4 1 5 -4 4 -6 0 -11 4 -68 14zm57 16l5 -2 23 -5 6 0 5 -3 7 -1 7 1 7 4 33 44 6 4 7 0 13 -2 6 -2 1 -6 -8 -11 -10 -12 -4 -6 -39 -51 -3 -6 -64 -83 -6 -10 -4 -5 -2 -4 -8 -10 -6 -9 -7 -9 -7 -4 -9 2 -5 6 -11 46 0 6 -3 8 -3 15 -2 6 -1 6 0 7 -14 56 -2 6 -1 6 -2 6 0 5 -4 12 -8 34 -1 6 -2 5 -2 6 -1 7 -4 10 0 6 -1 7 3 4 6 0 7 -2 7 -1 6 -5 4 -6 8 -28 1 -6 2 -5 0 -6 2 -5 4 -6 10 -6 9 -1 11 -3 12 -2 6 -2 17 -3 6 0z"/>
  <polygon class="fil0" points="10926,7849 10922,7846 10916,7837 10909,7829 10905,7825 10900,7820 10897,7814 10886,7802 10882,7797 10862,7775 10855,7766 10853,7759 10856,7754 10864,7747 10876,7734 10885,7718 10888,7712 10889,7706 10891,7701 10894,7684 10895,7677 10896,7672 10896,7666 10897,7660 10897,7654 10897,7649 10895,7631 10891,7624 10886,7622 10877,7624 10868,7629 10866,7634 10866,7640 10865,7646 10866,7652 10867,7664 10865,7682 10864,7687 10861,7692 10860,7699 10858,7703 10856,7709 10850,7720 10845,7724 10840,7730 10834,7736 10829,7739 10823,7741 10818,7744 10812,7747 10802,7751 10795,7752 10789,7752 10777,7756 10771,7756 10765,7753 10762,7749 10759,7734 10754,7683 10753,7678 10750,7647 10746,7643 10740,7639 10733,7640 10727,7641 10721,7645 10719,7651 10721,7663 10721,7669 10722,7679 10723,7685 10724,7691 10724,7698 10725,7702 10728,7739 10730,7744 10735,7786 10735,7791 10735,7797 10738,7808 10738,7814 10739,7820 10739,7826 10741,7838 10741,7846 10744,7860 10744,7867 10747,7891 10751,7896 10757,7898 10763,7897 10770,7897 10775,7893 10778,7887 10772,7840 10772,7835 10770,7827 10770,7819 10769,7805 10767,7800 10767,7793 10769,7787 10774,7784 10780,7783 10785,7781 10797,7780 10811,7775 10821,7776 10828,7779 10876,7838 10884,7846 10888,7851 10896,7859 10899,7865 10906,7872 10913,7876 10921,7879 10926,7878 10932,7878 10937,7877 10943,7874 10943,7870 10939,7865 "/>
  <path class="fil0" d="M11278 7702l4 -17 7 -17 11 -15 3 -3 4 -5 14 -12 10 -6 29 -10 7 -1 18 2 5 -1 6 2 12 2 6 3 6 2 11 5 4 4 9 7 16 18 5 11 3 5 1 6 3 7 1 5 2 6 0 6 1 4 1 19 0 5 -2 7 0 6 -8 23 -6 9 -3 6 -4 6 -8 8 -5 3 -9 8 -11 4 -6 4 -6 2 -22 4 -30 0 -6 -1 -6 -3 -12 -3 -10 -5 -19 -15 -10 -11 -8 -13 -2 -6 -3 -5 -6 -24 -1 -5 -1 -19 1 -13zm-30 44l1 6 1 6 3 11 3 6 2 6 8 15 10 15 11 11 7 6 5 2 5 4 6 4 4 2 6 2 5 4 5 1 12 4 6 1 12 3 6 -1 6 0 9 1 8 -1 7 -2 5 0 13 -2 6 -1 21 -9 21 -13 4 -5 9 -6 3 -6 4 -4 10 -15 3 -5 3 -6 2 -6 2 -4 5 -23 0 -12 1 -6 -1 -10 1 -8 -1 -7 -2 -5 -1 -7 -3 -11 -1 -7 -2 -5 -2 -6 -3 -6 -3 -4 -3 -6 -4 -5 -3 -6 -8 -9 -18 -15 -5 -2 -5 -4 -11 -5 -5 -2 -6 -3 -17 -5 -6 0 -6 -2 -6 1 -5 -1 -18 0 -6 2 -6 0 -12 2 -5 2 -6 1 -17 6 -5 3 -5 2 -5 3 -9 8 -4 5 -4 4 -8 9 -5 3 -5 10 -4 5 -10 27 -1 6 0 7 -2 11 0 24 1 6 1 7z"/>
  <polygon class="fil0" points="11842,7619 11845,7631 11850,7642 11851,7647 11854,7653 11854,7659 11857,7664 11859,7669 11868,7699 11871,7703 11874,7715 11877,7721 11893,7764 11893,7769 11899,7786 11904,7797 11906,7803 11917,7837 11921,7847 11923,7853 11929,7858 11937,7859 11942,7855 11947,7844 11954,7834 11956,7828 11959,7824 11965,7810 11977,7787 11984,7771 11988,7766 11996,7746 12001,7739 12009,7724 12014,7712 12020,7702 12022,7697 12028,7686 12029,7681 12033,7676 12046,7649 12048,7644 12051,7638 12054,7633 12056,7629 12059,7624 12061,7618 12060,7611 12049,7610 12041,7609 12032,7611 12026,7617 12024,7623 12019,7632 12016,7637 11998,7675 11996,7681 11990,7691 11983,7706 11979,7715 11972,7728 11968,7739 11962,7749 11940,7801 11938,7805 11935,7806 11934,7800 11932,7794 11921,7761 11920,7756 11918,7751 11917,7745 11915,7739 11913,7735 11908,7717 11904,7710 11903,7701 11889,7662 11888,7656 11886,7652 11884,7645 11882,7640 11880,7635 11878,7629 11877,7624 11874,7617 11872,7612 11871,7606 11867,7600 11860,7597 11849,7597 11844,7596 11838,7597 11836,7601 11837,7609 "/>
  <polygon class="fil0" points="12365,7858 12370,7870 12383,7889 12387,7892 12391,7897 12401,7903 12412,7908 12417,7911 12423,7913 12434,7917 12446,7919 12455,7921 12469,7923 12475,7923 12481,7922 12493,7922 12504,7920 12510,7919 12521,7914 12527,7913 12537,7907 12545,7900 12554,7890 12556,7885 12558,7881 12561,7875 12564,7870 12565,7862 12566,7852 12566,7846 12567,7840 12561,7823 12555,7813 12551,7809 12546,7806 12542,7801 12526,7792 12521,7789 12515,7788 12492,7779 12458,7770 12445,7765 12440,7764 12435,7760 12430,7757 12422,7748 12418,7743 12416,7738 12417,7723 12419,7714 12424,7703 12432,7696 12438,7694 12443,7691 12454,7686 12460,7685 12466,7685 12496,7687 12502,7689 12506,7691 12518,7696 12528,7702 12532,7705 12540,7714 12543,7718 12545,7724 12546,7731 12549,7737 12555,7740 12566,7742 12573,7740 12576,7734 12576,7728 12573,7720 12572,7712 12566,7701 12555,7688 12546,7680 12542,7678 12532,7671 12510,7662 12499,7660 12491,7659 12485,7657 12464,7657 12459,7658 12452,7658 12447,7659 12439,7662 12430,7664 12419,7669 12414,7674 12406,7680 12402,7684 12395,7694 12389,7704 12388,7710 12386,7718 12386,7728 12386,7733 12387,7744 12389,7751 12392,7756 12399,7765 12403,7770 12408,7773 12411,7778 12432,7787 12438,7789 12444,7792 12455,7796 12477,7802 12484,7804 12489,7806 12495,7806 12499,7809 12505,7810 12516,7815 12520,7819 12525,7822 12529,7826 12532,7831 12536,7842 12536,7847 12535,7856 12531,7871 12527,7875 12523,7881 12509,7889 12495,7893 12468,7896 12441,7891 12421,7883 12411,7875 12403,7867 12399,7862 12396,7854 12393,7846 12390,7840 12382,7835 12373,7833 12366,7835 12363,7841 12364,7853 "/>
  <polygon class="fil0" points="12897,8004 12903,8005 12909,8007 12916,8005 12920,8000 12931,7954 12933,7949 12934,7942 12937,7934 12940,7920 12941,7915 12943,7908 12947,7904 12953,7902 12959,7903 12965,7904 12976,7906 12991,7907 13000,7911 13005,7917 13030,7989 13034,7999 13036,8005 13041,8015 13042,8022 13046,8032 13051,8037 13058,8043 13063,8043 13068,8045 13073,8047 13080,8046 13081,8042 13079,8036 13073,8016 13070,8012 13068,8002 13063,7992 13062,7986 13059,7980 13057,7974 13051,7958 13050,7952 13038,7925 13035,7914 13036,7907 13040,7903 13050,7900 13066,7891 13080,7879 13085,7875 13088,7869 13091,7866 13101,7850 13103,7845 13106,7840 13109,7834 13111,7829 13113,7823 13115,7819 13120,7801 13119,7794 13114,7789 13106,7788 13095,7790 13091,7794 13089,7799 13086,7805 13085,7811 13081,7822 13074,7838 13071,7843 13066,7847 13063,7853 13059,7856 13056,7861 13046,7869 13041,7871 13034,7875 13026,7878 13020,7879 13013,7879 13008,7881 13001,7881 12990,7881 12984,7880 12978,7878 12966,7877 12960,7875 12956,7871 12953,7865 12956,7850 12970,7801 12970,7796 12978,7766 12975,7760 12971,7755 12965,7753 12959,7752 12952,7754 12947,7759 12945,7770 12943,7776 12941,7786 12939,7792 12938,7797 12936,7804 12936,7809 12926,7844 12926,7849 12916,7890 12914,7895 12912,7901 12910,7912 12909,7918 12907,7924 12905,7929 12903,7941 12900,7949 12898,7964 12895,7969 12890,7993 12891,8000 "/>
  <path class="fil0" d="M13442 8037l1 -5 6 -18 6 -11 10 -14 12 -13 15 -10 4 -2 5 -3 18 -6 12 -2 30 1 7 1 16 8 6 1 5 4 10 6 4 5 5 4 8 9 3 5 6 10 9 23 1 12 1 6 -1 6 1 7 -1 5 -1 6 -2 6 -1 4 -6 18 -2 5 -4 6 -2 6 -16 19 -9 7 -5 5 -5 4 -10 5 -6 1 -11 5 -12 0 -7 2 -6 0 -22 -4 -28 -10 -6 -3 -4 -5 -10 -7 -8 -9 -12 -20 -5 -13 -3 -15 0 -7 -1 -5 3 -25zm-34 32l2 17 5 17 6 14 4 8 4 4 3 5 4 6 3 4 5 4 4 5 5 3 10 8 5 3 10 7 6 1 5 2 8 4 8 2 7 1 5 2 13 3 6 1 23 -1 24 -4 6 -3 11 -3 5 -4 5 -3 14 -11 5 -4 5 -4 4 -5 4 -3 13 -20 5 -11 3 -5 3 -9 3 -7 2 -7 0 -5 1 -7 1 -11 1 -7 0 -6 0 -6 -1 -7 -1 -5 -1 -7 -2 -6 -1 -7 -4 -11 -12 -21 -4 -4 -3 -5 -8 -9 -4 -4 -4 -5 -15 -11 -5 -2 -5 -4 -6 -1 -5 -3 -17 -6 -6 0 -6 -2 -12 -2 -5 0 -6 -1 -18 0 -6 1 -6 0 -6 1 -12 4 -6 4 -6 2 -10 6 -6 2 -8 8 -5 3 -19 22 -3 5 -2 6 -6 10 -9 23 -1 6 -2 6 -1 6 -2 6 -1 11 1 7 -1 6z"/>
  <polygon class="fil0" points="13971,8328 13972,8333 13976,8339 13977,8344 13981,8349 13986,8359 13991,8363 13998,8372 14003,8376 14011,8385 14021,8391 14026,8395 14039,8402 14053,8408 14065,8411 14071,8412 14077,8414 14082,8415 14106,8415 14124,8412 14129,8412 14141,8406 14145,8403 14152,8401 14162,8395 14166,8390 14173,8385 14183,8374 14186,8369 14190,8365 14197,8356 14199,8352 14202,8346 14205,8342 14207,8337 14207,8330 14203,8324 14189,8318 14181,8314 14175,8312 14170,8310 14164,8307 14159,8304 14153,8301 14142,8297 14126,8288 14110,8281 14103,8282 14098,8287 14094,8293 14094,8299 14098,8304 14103,8307 14108,8309 14113,8312 14119,8314 14129,8320 14140,8324 14145,8326 14161,8334 14166,8336 14170,8342 14169,8348 14153,8366 14149,8370 14140,8376 14134,8378 14123,8384 14106,8387 14100,8387 14094,8387 14089,8386 14060,8379 14043,8372 14038,8368 14033,8365 14020,8354 14008,8340 14006,8335 14001,8324 13995,8301 13996,8271 13999,8259 14002,8254 14003,8248 14008,8239 14011,8231 14014,8227 14020,8217 14024,8212 14033,8205 14037,8199 14042,8195 14056,8186 14062,8185 14067,8182 14073,8179 14096,8176 14120,8179 14126,8181 14162,8200 14167,8204 14171,8208 14183,8221 14191,8235 14193,8242 14195,8259 14198,8266 14203,8271 14209,8274 14215,8277 14219,8277 14223,8271 14224,8266 14223,8260 14224,8254 14223,8246 14222,8242 14220,8236 14219,8230 14216,8225 14215,8220 14211,8213 14207,8209 14204,8204 14201,8198 14197,8195 14193,8191 14188,8187 14182,8180 14164,8168 14151,8161 14143,8158 14138,8156 14132,8155 14121,8151 14115,8149 14109,8149 14103,8148 14074,8150 14068,8152 14062,8153 14051,8156 14046,8159 14041,8161 14035,8164 14020,8174 14007,8185 13991,8204 13986,8214 13983,8218 13978,8227 13975,8235 13974,8240 13971,8247 13970,8252 13968,8257 13964,8281 13964,8293 13969,8322 "/>
  <path class="fil0" d="M14514 8556l2 -6 0 -5 8 -24 2 -5 9 -16 8 -10 13 -12 15 -11 17 -7 4 -1 6 -2 19 -2 12 0 30 7 6 3 14 11 5 2 4 5 9 8 3 5 4 5 6 10 2 5 4 11 4 24 -1 12 0 6 -2 5 -1 7 -2 5 -2 6 -3 5 -2 4 -9 17 -3 4 -5 5 -3 5 -19 15 -10 5 -6 4 -6 3 -11 3 -6 0 -12 2 -12 -2 -7 0 -6 -1 -21 -8 -25 -16 -5 -4 -3 -6 -8 -9 -6 -10 -8 -22 -2 -14 1 -15zm-27 39l3 8 3 4 2 5 3 7 3 4 4 5 3 6 4 4 8 10 5 4 8 9 6 3 5 3 7 6 7 4 6 2 4 3 12 5 5 2 23 4 25 1 6 -2 11 -1 6 -3 6 -1 16 -8 5 -3 6 -3 5 -4 4 -3 17 -17 7 -10 4 -5 5 -8 5 -7 3 -6 1 -5 3 -6 3 -11 3 -6 1 -6 2 -6 1 -7 0 -5 1 -7 -1 -6 0 -7 -2 -11 -7 -23 -3 -5 -2 -6 -6 -10 -3 -5 -3 -5 -12 -13 -5 -3 -4 -5 -5 -2 -4 -4 -16 -9 -6 -1 -5 -3 -11 -5 -5 -1 -6 -2 -18 -4 -6 0 -6 -1 -6 0 -12 2 -6 2 -6 1 -11 4 -6 0 -9 6 -6 2 -23 17 -4 5 -3 6 -7 9 -13 21 -2 6 -3 6 -2 5 -3 5 -3 11 -1 7 -2 6 -2 17 1 18 4 15z"/>
  <polygon class="fil0" points="15273,9164 15274,9170 15279,9180 15286,9190 15288,9196 15292,9201 15299,9209 15309,9218 15315,9224 15326,9233 15331,9237 15336,9239 15347,9245 15357,9249 15362,9252 15375,9253 15380,9255 15392,9256 15403,9254 15415,9250 15419,9247 15424,9245 15429,9241 15434,9238 15440,9232 15446,9225 15448,9219 15453,9214 15457,9197 15457,9185 15455,9179 15453,9174 15452,9168 15443,9152 15440,9147 15436,9143 15422,9123 15397,9098 15389,9087 15385,9083 15384,9077 15380,9071 15378,9060 15378,9054 15379,9048 15388,9036 15395,9029 15404,9023 15415,9021 15421,9022 15427,9022 15439,9025 15444,9027 15450,9030 15473,9047 15477,9052 15480,9056 15488,9066 15493,9077 15495,9082 15497,9094 15497,9099 15496,9105 15493,9111 15492,9117 15496,9123 15504,9131 15511,9133 15516,9129 15520,9124 15522,9116 15525,9108 15526,9096 15523,9079 15520,9068 15517,9064 15513,9052 15498,9034 15490,9026 15484,9021 15480,9016 15462,9005 15457,9003 15452,8999 15447,8998 15438,8996 15429,8993 15418,8991 15411,8993 15401,8993 15395,8995 15385,9000 15374,9006 15370,9009 15364,9015 15358,9023 15356,9027 15351,9038 15349,9045 15349,9051 15350,9062 15350,9068 15353,9074 15354,9079 15367,9099 15370,9103 15374,9109 15381,9118 15397,9134 15401,9140 15405,9144 15409,9147 15412,9152 15416,9157 15423,9166 15424,9171 15427,9178 15428,9183 15428,9188 15425,9200 15423,9204 15417,9211 15405,9222 15401,9223 15394,9226 15378,9226 15363,9221 15339,9210 15319,9191 15306,9174 15302,9162 15299,9151 15299,9144 15300,9136 15302,9128 15303,9120 15298,9112 15292,9106 15285,9104 15279,9107 15274,9118 15272,9123 15270,9135 15271,9158 "/>
  <polygon class="fil0" points="15930,9452 15896,9419 15887,9407 15880,9401 15877,9397 15873,9394 15860,9380 15856,9376 15811,9328 15805,9326 15798,9328 15790,9335 15788,9341 15790,9348 15794,9351 15798,9356 15819,9376 15822,9381 15826,9385 15830,9389 15833,9393 15836,9399 15834,9404 15812,9425 15808,9430 15804,9434 15795,9442 15786,9450 15783,9454 15706,9528 15702,9532 15697,9537 15686,9548 15680,9553 15678,9559 15680,9565 15685,9570 15688,9574 15694,9577 15701,9574 15705,9570 15712,9564 15726,9549 15731,9546 15750,9527 15753,9523 15758,9519 15769,9509 15773,9504 15777,9501 15821,9459 15824,9455 15829,9451 15833,9448 15838,9443 15841,9438 15850,9432 15854,9427 15859,9425 15867,9427 15878,9439 15884,9446 15907,9467 15910,9472 15916,9475 15922,9473 15926,9468 15930,9464 15932,9458 "/>
  <path class="fil0" d="M12204 15114c-42,3 -77,-19 -110,-39 -48,-30 -93,-65 -145,-88 -11,-5 -20,-12 -30,-19 -29,-20 -40,-23 -78,-22 -41,24 -83,52 -127,75 -32,17 -58,43 -89,59 -7,4 -13,9 -20,12 -18,8 -33,25 -54,22 -27,-3 -51,-15 -72,-29 -59,-36 -115,-76 -173,-113 -16,-10 -35,-17 -58,-28 -33,-8 -64,13 -94,33 -62,41 -124,80 -190,114 -31,16 -62,26 -96,23 0,-14 0,-28 0,-42 9,-1 18,-1 27,-5 38,-16 70,-41 104,-63 40,-26 77,-55 119,-79 29,-16 45,-20 70,-49 0,-3 35,-20 48,-20 21,0 50,33 73,46 17,10 36,18 50,31 25,23 56,35 83,54 25,17 51,33 74,48 44,9 77,-7 111,-30 42,-28 83,-60 132,-78 18,-7 33,-23 48,-37 13,-12 33,-31 55,-31 18,0 44,16 61,27 16,10 29,24 44,35 24,17 47,34 73,47 25,13 48,27 70,44 29,22 60,43 96,51 0,17 0,34 0,51z"/>
  <path class="fil0" d="M11535 15466c-39,-18 -89,-58 -127,-82 -38,-23 -76,-49 -113,-75 -20,-14 -39,-30 -60,-47 4,-11 8,-21 11,-28 35,-9 55,19 81,24 56,43 118,76 176,116 3,2 6,6 9,9 3,0 5,1 8,1 45,9 82,-13 115,-38 52,-38 109,-68 156,-113 4,-4 12,-5 23,-10 7,0 19,0 35,0 3,11 6,22 9,33 -26,36 -62,54 -96,76 -29,19 -59,36 -86,58 -24,20 -50,35 -76,52 -10,6 -41,22 -66,22z"/>
  <path class="fil0" d="M10866 10378c42,-3 77,19 110,39 48,30 93,65 145,88 11,5 20,12 30,19 29,20 40,23 78,22 41,-24 83,-52 127,-75 32,-17 58,-43 89,-60 7,-4 13,-9 20,-12 18,-8 33,-25 54,-22 27,3 51,15 72,29 59,36 115,76 173,113 16,10 35,17 58,28 33,8 64,-13 94,-33 62,-41 124,-80 190,-114 31,-16 62,-26 96,-23 0,14 0,28 0,42 -9,1 -18,1 -27,5 -38,16 -70,41 -104,63 -40,26 -77,56 -119,79 -29,16 -45,20 -70,49 0,3 -35,20 -48,20 -21,0 -50,-33 -73,-46 -17,-10 -36,-18 -50,-31 -25,-23 -56,-35 -83,-54 -25,-17 -51,-33 -74,-48 -44,-9 -77,7 -111,30 -42,28 -83,60 -132,78 -18,7 -33,23 -48,37 -13,12 -33,31 -55,31 -18,0 -44,-16 -61,-27 -16,-10 -29,-24 -44,-35 -24,-17 -47,-34 -73,-47 -25,-13 -48,-27 -70,-44 -29,-22 -60,-43 -96,-51 0,-17 0,-34 0,-51z"/>
  <path class="fil0" d="M11535 10026c39,18 89,58 127,82 38,23 76,49 113,75 20,14 39,30 60,47 -4,11 -8,21 -11,28 -35,9 -55,-19 -81,-24 -56,-43 -118,-76 -176,-116 -3,-2 -6,-6 -9,-9 -3,0 -5,-1 -8,-1 -45,-9 -82,13 -115,38 -52,38 -109,68 -156,113 -4,4 -12,5 -23,10 -7,0 -19,0 -35,0 -3,-11 -6,-22 -9,-33 26,-36 62,-54 96,-76 29,-19 59,-36 86,-58 24,-20 50,-35 76,-52 10,-6 41,-22 66,-22z"/>
  <path class="fil0" d="M8283 12211l-468 0 0 676 471 0c250,0 400,-106 400,-340 0,-221 -154,-336 -404,-336zm801 320c0,448 -333,686 -810,686l-458 0 0 577 -388 0 0 -1922 871 0c484,0 785,240 785,660z"/>
  <path class="fil0" d="M11123 12833c0,-365 -259,-631 -621,-631 -359,0 -615,266 -615,631 0,365 256,631 615,631 362,0 621,-266 621,-631zm-1637 0c0,-554 388,-1003 1016,-1003 631,0 1019,448 1019,1003 0,554 -388,1003 -1019,1003 -628,0 -1016,-448 -1016,-1003z"/>
  <path class="fil0" d="M12922 12211l-468 0 0 670 477 0c243,0 391,-109 391,-333 0,-221 -151,-336 -400,-336zm-855 -340l868 0c487,0 788,240 788,660 0,285 -141,480 -362,586l0 29 458 609 0 38 -439 0 -426 -586 -500 0 0 586 -388 0 0 -1922z"/>
  <polygon class="fil0" points="14121,11872 15761,11872 15761,12211 15137,12211 15137,13794 14749,13794 14749,12211 14121,12211 "/>
 </g>
</svg>
